<?xml version="1.0" encoding="UTF-8" standalone="no"?>
<!-- Created with Inkscape (http://www.inkscape.org/) -->

<svg
   width="257.20157mm"
   height="74.929054mm"
   viewBox="0 0 257.20157 74.929053"
   version="1.1"
   id="svg1"
   xmlns="http://www.w3.org/2000/svg"
   xmlns:svg="http://www.w3.org/2000/svg">
  <defs
     id="defs1">
    <clipPath
       clipPathUnits="userSpaceOnUse"
       id="clip2">
      <rect
         style="opacity:1;fill:none;fill-opacity:1;stroke:#413f80;stroke-width:0.777833;stroke-linecap:square;stroke-linejoin:round;stroke-miterlimit:2;stroke-dasharray:none;stroke-opacity:1;paint-order:markers stroke fill"
         id="rect78"
         width="1146.5076"
         height="375.33426"
         x="-363.79333"
         y="-117.82699" />
    </clipPath>
    <clipPath
       clipPathUnits="userSpaceOnUse"
       id="clip3">
      <rect
         style="opacity:1;fill:none;fill-opacity:1;stroke:#413f80;stroke-width:0.777833;stroke-linecap:square;stroke-linejoin:round;stroke-miterlimit:2;stroke-dasharray:none;stroke-opacity:1;paint-order:markers stroke fill"
         id="rect1"
         width="1146.5076"
         height="375.33426"
         x="-363.79333"
         y="-117.82699" />
    </clipPath>
    <clipPath
       clipPathUnits="userSpaceOnUse"
       id="clip5">
      <rect
         style="opacity:1;fill:none;fill-opacity:1;stroke:#413f80;stroke-width:0.777833;stroke-linecap:square;stroke-linejoin:round;stroke-miterlimit:2;stroke-dasharray:none;stroke-opacity:1;paint-order:markers stroke fill"
         id="rect3"
         width="1146.5076"
         height="375.33426"
         x="-278.23444"
         y="-117.76052" />
    </clipPath>
    <clipPath
       clipPathUnits="userSpaceOnUse"
       id="clip6">
      <rect
         style="opacity:1;fill:none;fill-opacity:1;stroke:#413f80;stroke-width:0.777833;stroke-linecap:square;stroke-linejoin:round;stroke-miterlimit:2;stroke-dasharray:none;stroke-opacity:1;paint-order:markers stroke fill"
         id="rect4"
         width="1146.5076"
         height="375.33426"
         x="-278.23444"
         y="-117.76052" />
    </clipPath>
    <clipPath
       clipPathUnits="userSpaceOnUse"
       id="clip8">
      <rect
         style="opacity:1;fill:none;fill-opacity:1;stroke:#413f80;stroke-width:0.777833;stroke-linecap:square;stroke-linejoin:round;stroke-miterlimit:2;stroke-dasharray:none;stroke-opacity:1;paint-order:markers stroke fill"
         id="rect6"
         width="1146.5076"
         height="375.33426"
         x="-192.87245"
         y="-117.82699" />
    </clipPath>
    <clipPath
       clipPathUnits="userSpaceOnUse"
       id="clip9">
      <rect
         style="opacity:1;fill:none;fill-opacity:1;stroke:#413f80;stroke-width:0.777833;stroke-linecap:square;stroke-linejoin:round;stroke-miterlimit:2;stroke-dasharray:none;stroke-opacity:1;paint-order:markers stroke fill"
         id="rect7"
         width="1146.5076"
         height="375.33426"
         x="-192.87245"
         y="-117.82699" />
    </clipPath>
  </defs>
  <rect
     style="display:inline;fill:#ab9d5f;stroke:none;stroke-width:0.264583;stroke-linejoin:round;stroke-miterlimit:2;stroke-dasharray:none;stroke-opacity:0.686275;paint-order:markers stroke fill"
     id="rect8"
     width="257.20157"
     height="74.858788"
     x="0"
     y="0.06673824" />
  <g
     id="g23"
     style="display:inline"
     transform="translate(0.00370223,0.06862701)">
    <g
       id="g20">
      <path
         id="path19"
         style="display:inline;opacity:1;fill:#db72fa;fill-opacity:1;stroke:none;stroke-width:5.65409;stroke-linecap:square;stroke-linejoin:round;stroke-miterlimit:2;paint-order:markers stroke fill"
         d="m 86.3259,38.161235 c 0,0 -6.335202,-7.01447 -9.674259,-9.035444 -2.736838,-1.656479 -2.45418,-2.813696 -8.485321,-4.031766 -6.031142,-1.21807 -20.063575,-1.398267 -27.182385,2.740152 -7.11881,4.13842 -7.878049,12.523387 -12.798411,17.999521 -4.074702,4.534954 -8.741995,8.567183 -13.691062,12.127482 -4.415964,3.176791 -14.14368658,8.141913 -14.14368658,8.141913 L 0.29785508,74.610718 86.05908,74.860435 Z"
         clip-path="url(#clip2)" />
      <path
         id="path20"
         style="display:inline;opacity:1;fill:none;fill-opacity:1;stroke:#9a35c4;stroke-width:1.05833;stroke-linecap:butt;stroke-linejoin:round;stroke-miterlimit:2;stroke-dasharray:none;stroke-opacity:1;paint-order:markers stroke fill"
         d="m 86.017637,37.872327 c 0,0 -5.813553,-6.332547 -9.296987,-8.795155 -2.519167,-1.780921 -5.203753,-3.66349 -8.238799,-4.217008 -9.057085,-1.65179 -19.501549,-1.558312 -27.445468,3.095003 -6.457115,3.782389 -8.126422,12.641118 -13.104689,18.228395 -4.026357,4.518916 -8.359901,7.929054 -13.298802,11.427542 -4.279146,3.031149 -13.9784381,8.256575 -13.9784381,8.256575"
         clip-path="url(#clip3)" />
    </g>
    <path
       style="baseline-shift:baseline;display:inline;overflow:visible;opacity:1;fill:#e1d084;stroke:#111111;stroke-width:0.529167;stroke-miterlimit:2;stroke-dasharray:none;stroke-opacity:1;paint-order:markers stroke fill;enable-background:accumulate;stop-color:#000000;stop-opacity:1"
       d="m 69.454333,0.550422 -2.363481,24.619141 2.672512,0.160156 2.361013,-24.619141 z m 10.4527,0.002 -4.595927,28.476563 2.657677,0.267578 L 82.56471,0.82 Z m -61.917675,0.09766 -3.992699,47.734374 -0.771338,9.220704 2.6725,0.138671 0.771351,-9.220703 3.992699,-47.734375 z m 23.770745,-0.220574 -2.677449,0.03711 0.42275,19.533073 0.180477,8.113281 2.677462,-0.03711 -0.180477,-8.113281 z m -15.112904,0.01758 -0.0519,36.288933 -0.01266,9.570312 2.677449,0.0039 0.01481,-9.572266 0.04949,-36.288932 z"
       id="path22" />
    <path
       style="baseline-shift:baseline;display:inline;overflow:visible;opacity:1;fill:#e6a3ff;fill-opacity:1;stroke:#111111;stroke-width:0.529167;stroke-linejoin:round;stroke-miterlimit:2;stroke-dasharray:none;stroke-opacity:1;paint-order:markers stroke fill;enable-background:accumulate;stop-color:#000000;stop-opacity:1"
       d="m 67.090852,25.169563 -2.200307,22.949218 2.670044,0.160157 2.202776,-22.949219 z m -24.727509,2.90625 -2.677462,0.03711 0.897436,40.400391 2.679917,-0.03711 z m 32.947763,0.953125 -6.539113,40.542968 2.657677,0.267579 6.539113,-40.542969 z m -48.728185,17.277343 -0.02228,15.837891 2.67993,0.002 0.01975,-15.835937 z m -13.3576,11.298829 -0.949347,11.349609 2.6725,0.138672 0.949347,-11.34961 z"
       id="path1" />
    <g
       id="layer3"
       transform="translate(-0.00370223,-0.00188878)">
      <circle
         style="display:inline;fill:#9a35c4;fill-opacity:1;stroke:none;stroke-width:1.71888;stroke-linejoin:round;stroke-miterlimit:2;stroke-dasharray:none;stroke-dashoffset:0;stroke-opacity:0.358974;paint-order:markers stroke fill"
         id="path13-5-5"
         cx="41.073727"
         cy="27.943775"
         r="0.87359506" />
      <circle
         style="display:inline;fill:#9a35c4;fill-opacity:1;stroke:none;stroke-width:1.71888;stroke-linejoin:round;stroke-miterlimit:2;stroke-dasharray:none;stroke-dashoffset:0;stroke-opacity:0.358974;paint-order:markers stroke fill"
         id="path13-5-4"
         cx="27.861095"
         cy="46.381927"
         r="0.87359506" />
      <circle
         style="display:inline;fill:#9a35c4;fill-opacity:1;stroke:none;stroke-width:1.71888;stroke-linejoin:round;stroke-miterlimit:2;stroke-dasharray:none;stroke-dashoffset:0;stroke-opacity:0.358974;paint-order:markers stroke fill"
         id="path13-5-4-11"
         cx="14.631928"
         cy="57.494427"
         r="0.87359506" />
      <circle
         style="display:inline;fill:#9a35c4;fill-opacity:1;stroke:none;stroke-width:1.71888;stroke-linejoin:round;stroke-miterlimit:2;stroke-dasharray:none;stroke-dashoffset:0;stroke-opacity:0.358974;paint-order:markers stroke fill"
         id="path13-5-4-7"
         cx="68.431534"
         cy="25.145103"
         r="0.87359506" />
      <circle
         style="display:inline;fill:#9a35c4;fill-opacity:1;stroke:none;stroke-width:1.71888;stroke-linejoin:round;stroke-miterlimit:2;stroke-dasharray:none;stroke-dashoffset:0;stroke-opacity:0.358974;paint-order:markers stroke fill"
         id="path13-5-4-1"
         cx="76.684746"
         cy="29.125546"
         r="0.87359506" />
    </g>
  </g>
  <g
     id="g37"
     style="display:inline"
     transform="translate(0.00370223,0.06862701)">
    <g
       id="g34">
      <path
         id="path33"
         style="display:inline;opacity:1;fill:#db72fa;fill-opacity:1;stroke:none;stroke-width:0.264583;stroke-linecap:square;stroke-linejoin:round;stroke-miterlimit:2;stroke-dasharray:none;stroke-opacity:1;paint-order:markers stroke fill"
         d="m 171.79079,37.767385 -9.63872,-8.013855 c 0,0 -5.67887,-2.955122 -8.42686,-4.593032 -6.40975,-3.820466 -24.05762,-3.450753 -24.02145,-1.864691 l -2.59839,4.37562 c 0,0 -5.50147,13.156643 -13.74748,19.823957 -2.82502,2.284169 -5.55481,3.522413 -8.41394,5.764014 -1.59237,1.248443 -3.33893,3.469725 -4.8906,4.768255 -4.737678,3.964762 -14.049687,15.418328 -14.049687,15.418328 l 0.126935,1.311398 85.866702,0.08183 z"
         clip-path="url(#clip5)" />
      <path
         id="path34"
         style="display:inline;opacity:1;fill:none;fill-opacity:1;stroke:#9a35c4;stroke-width:1.05833;stroke-linecap:square;stroke-linejoin:round;stroke-miterlimit:2;stroke-dasharray:none;stroke-opacity:1;paint-order:markers stroke fill"
         d="m 171.69661,37.203343 c 0,0 -6.23959,-5.561362 -9.73278,-7.825838 -2.58874,-1.678173 -5.25989,-3.414509 -8.2388,-4.217008 -7.85177,-2.115216 -16.55239,-5.90796 -24.36054,-1.297517 m -5.5707,8.853353 c -0.31475,2.995533 -4.73764,10.722241 -10.29219,15.12198 -5.55455,4.399738 -8.11593,5.166961 -8.11593,5.166961 m -9.044264,8.311913 -9.855729,12.303125"
         clip-path="url(#clip6)" />
    </g>
    <g
       id="g4-6"
       style="display:inline"
       transform="translate(-85.195837)">
      <path
         style="opacity:1;fill:#db72fa;stroke:#e1d084;stroke-width:2.11666;stroke-linecap:butt;stroke-linejoin:round;stroke-miterlimit:2;stroke-dasharray:none;stroke-opacity:0.358974;paint-order:markers stroke fill"
         d="M 185.48094,57.775682 190.36055,0.57792539"
         id="path2-5" />
      <path
         style="opacity:1;fill:#db72fa;stroke:#e1d084;stroke-width:2.11666;stroke-linecap:butt;stroke-linejoin:round;stroke-miterlimit:2;stroke-dasharray:none;stroke-opacity:0.358974;paint-order:markers stroke fill"
         d="M 198.91292,0.33331355 198.71132,46.658798"
         id="path3-0" />
      <path
         style="opacity:1;fill:#db72fa;stroke:#e1d084;stroke-width:2.11666;stroke-linecap:butt;stroke-linejoin:round;stroke-miterlimit:2;stroke-dasharray:none;stroke-opacity:0.358974;paint-order:markers stroke fill"
         d="M 212.12221,28.047651 211.18834,0.33523044"
         id="path4-2" />
    </g>
    <path
       id="path9"
       style="display:inline;opacity:1;fill:none;fill-opacity:1;stroke:#000000;stroke-width:1.5875;stroke-linecap:butt;stroke-linejoin:round;stroke-miterlimit:2;stroke-dasharray:6.34998, 6.34998;stroke-dashoffset:0;stroke-opacity:0.666667;paint-order:markers stroke fill"
       d="m 141.98319,1.1852721 c 0,0 -3.45103,6.4402416 -7.26517,13.2287149 -2.95268,5.255251 -6.12297,10.719196 -8.07824,13.565495 -4.48099,6.523006 -8.50441,11.510297 -13.02722,16.384358 -4.52282,4.874061 -8.96369,9.243584 -13.41892,13.083732 -4.455237,3.840148 -13.491537,11.92665 -13.491537,11.92665 v 0" />
    <path
       id="path35"
       style="display:inline;opacity:1;fill:none;fill-opacity:1;stroke:#000000;stroke-width:0.264583;stroke-linecap:square;stroke-linejoin:miter;stroke-miterlimit:2;stroke-dasharray:none;stroke-dashoffset:0;stroke-opacity:0.666667;paint-order:markers stroke fill"
       d="m 142.52889,0.11040229 c 0,0 -11.40812,21.34607271 -15.88911,27.86907971 -4.48099,6.523006 -8.50441,11.510297 -13.02722,16.384358 -4.52282,4.874061 -8.96369,9.243584 -13.41892,13.083732 -4.455237,3.840148 -13.491537,11.92665 -13.491537,11.92665 v 0" />
    <path
       style="baseline-shift:baseline;display:inline;overflow:visible;opacity:1;fill:#e1d084;stroke:#111111;stroke-width:0.529167;stroke-miterlimit:2;stroke-dasharray:none;stroke-opacity:1;paint-order:markers stroke fill;enable-background:accumulate;stop-color:#000000;stop-opacity:1"
       d="m 155.01322,0.616895 -2.36348,24.619141 2.67251,0.160156 2.36102,-24.619141 z m 10.4527,0.002 -4.59592,28.476563 2.65767,0.267578 4.59593,-28.476563 z m -40.22115,27.56055 2.67746,-0.03711 z m -13.10058,15.831447 -0.003,2.361914 2.67745,0.0039 0.004,-2.436342 z"
       id="path36" />
    <path
       style="baseline-shift:baseline;display:inline;overflow:visible;opacity:1;fill:#e6a3ff;fill-opacity:1;stroke:#111111;stroke-width:0.529167;stroke-linejoin:round;stroke-miterlimit:2;stroke-dasharray:none;stroke-opacity:1;paint-order:markers stroke fill;enable-background:accumulate;stop-color:#000000;stop-opacity:1"
       d="m 152.64974,25.236036 -2.20031,22.949218 2.67005,0.160157 2.20277,-22.949219 z m -24.72751,2.90625 -2.67746,0.03711 0.89744,40.400391 2.67991,-0.03711 z m 32.94777,0.953125 -6.53912,40.542968 2.65768,0.267579 6.53911,-40.542969 z m -48.72819,17.277343 -0.0223,15.837891 2.67993,0.002 0.0198,-15.835937 z m -13.357599,11.298829 -0.949347,11.349609 2.672496,0.138672 0.94935,-11.34961 z"
       id="path37" />
    <g
       id="layer4"
       transform="translate(-0.00370223,-0.00188878)">
      <circle
         style="display:inline;fill:#9a35c4;fill-opacity:1;stroke:none;stroke-width:1.71888;stroke-linejoin:round;stroke-miterlimit:2;stroke-dasharray:none;stroke-dashoffset:0;stroke-opacity:0.358974;paint-order:markers stroke fill"
         id="path13-9"
         cx="154.04399"
         cy="25.105663"
         r="0.87359506" />
      <circle
         style="display:inline;fill:#9a35c4;fill-opacity:1;stroke:none;stroke-width:1.71888;stroke-linejoin:round;stroke-miterlimit:2;stroke-dasharray:none;stroke-dashoffset:0;stroke-opacity:0.358974;paint-order:markers stroke fill"
         id="path13-9-6"
         cx="113.58609"
         cy="46.216564"
         r="0.87359506" />
      <circle
         style="display:inline;fill:#9a35c4;fill-opacity:1;stroke:none;stroke-width:1.71888;stroke-linejoin:round;stroke-miterlimit:2;stroke-dasharray:none;stroke-dashoffset:0;stroke-opacity:0.358974;paint-order:markers stroke fill"
         id="path13-5-3"
         cx="162.31638"
         cy="28.978594"
         r="0.87359506" />
    </g>
  </g>
  <g
     id="g43"
     style="display:inline"
     transform="translate(0.00370223,0.06862701)">
    <g
       id="g40">
      <path
         id="path39"
         style="display:inline;opacity:1;fill:#db72fa;fill-opacity:1;stroke:none;stroke-width:0.264583;stroke-linecap:square;stroke-linejoin:round;stroke-miterlimit:2;stroke-dasharray:none;stroke-opacity:1;paint-order:markers stroke fill"
         d="m 256.83249,34.509544 -9.31843,-4.822487 -8.42686,-4.593032 -19.11767,-10.685192 c 0,0 -4.68941,8.312346 -8.06472,13.425344 -3.37531,5.112998 -8.56061,11.514054 -13.09607,16.445094 -4.53546,4.93104 -8.93461,9.521078 -13.3934,13.35118 -4.45879,3.830102 -13.35515,11.747234 -13.35515,11.747234 l -0.0548,5.410696 85.1911,0.05844 z"
         clip-path="url(#clip8)" />
      <path
         id="path40"
         style="display:inline;opacity:1;fill:none;fill-opacity:1;stroke:#9a35c4;stroke-width:1.05833;stroke-linecap:butt;stroke-linejoin:miter;stroke-miterlimit:2;stroke-dasharray:none;stroke-opacity:1;paint-order:markers stroke fill"
         d="m 256.88235,34.622193 -9.55653,-5.311161 -8.2388,-4.217008 -19.10216,-10.595701"
         clip-path="url(#clip9)" />
    </g>
    <path
       id="path10"
       style="display:inline;opacity:1;fill:none;fill-opacity:1;stroke:#000000;stroke-width:1.5875;stroke-linecap:butt;stroke-linejoin:round;stroke-miterlimit:2;stroke-dasharray:6.34998, 6.34998;stroke-dashoffset:0;stroke-opacity:0.666667;paint-order:markers stroke fill"
       d="m 227.51055,0.60616889 c 0,0 -9.69879,18.61350511 -15.60278,27.25983611 -3.9301,5.75559 -8.46328,11.094098 -13.12031,16.279127 -4.16866,4.641277 -8.68735,8.961996 -13.23184,13.235967 -4.37252,4.112252 -13.49153,11.92665 -13.49153,11.92665 v 0" />
    <path
       id="path41"
       style="display:inline;opacity:1;fill:none;fill-opacity:1;stroke:#000000;stroke-width:0.264583;stroke-linecap:butt;stroke-linejoin:round;stroke-miterlimit:2;stroke-dasharray:none;stroke-dashoffset:0;stroke-opacity:0.666667;paint-order:markers stroke fill"
       d="m 227.74206,0.12661158 c 0,0 -9.83558,18.94332242 -15.83429,27.73939342 -3.92674,5.757883 -8.46328,11.094098 -13.12031,16.279127 -4.16866,4.641277 -8.68735,8.961996 -13.23184,13.235967 -4.37252,4.112252 -13.49153,11.92665 -13.49153,11.92665 v 0" />
    <g
       id="g4"
       style="display:inline">
      <path
         style="opacity:1;fill:#db72fa;stroke:#e1d084;stroke-width:2.11666;stroke-linecap:butt;stroke-linejoin:round;stroke-miterlimit:2;stroke-dasharray:none;stroke-opacity:0.358974;paint-order:markers stroke fill"
         d="M 185.48094,57.775682 190.36055,0.57792539"
         id="path2" />
      <path
         style="opacity:1;fill:#db72fa;stroke:#e1d084;stroke-width:2.11666;stroke-linecap:butt;stroke-linejoin:round;stroke-miterlimit:2;stroke-dasharray:none;stroke-opacity:0.358974;paint-order:markers stroke fill"
         d="M 198.91292,0.33331355 198.71132,46.658798"
         id="path3" />
      <path
         style="opacity:1;fill:#db72fa;stroke:#e1d084;stroke-width:2.11666;stroke-linecap:butt;stroke-linejoin:round;stroke-miterlimit:2;stroke-dasharray:none;stroke-opacity:0.358974;paint-order:markers stroke fill"
         d="M 212.12221,28.047651 211.18834,0.33523044"
         id="path4" />
    </g>
    <path
       style="baseline-shift:baseline;display:inline;overflow:visible;opacity:1;fill:#e1d084;stroke:#111111;stroke-width:0.529167;stroke-miterlimit:2;stroke-dasharray:none;stroke-opacity:1;paint-order:markers stroke fill;enable-background:accumulate;stop-color:#000000;stop-opacity:1"
       d="m 240.37521,0.550422 -2.36348,24.619141 2.67251,0.160156 2.36101,-24.619141 z m 10.4527,0.002 -4.59593,28.476563 2.65768,0.267578 L 253.48559,0.82 Z"
       id="path42" />
    <path
       style="baseline-shift:baseline;display:inline;overflow:visible;opacity:1;fill:#e6a3ff;fill-opacity:1;stroke:#111111;stroke-width:0.529167;stroke-linejoin:round;stroke-miterlimit:2;stroke-dasharray:none;stroke-opacity:1;paint-order:markers stroke fill;enable-background:accumulate;stop-color:#000000;stop-opacity:1"
       d="m 238.01173,25.169563 -2.20031,22.949218 2.67005,0.160157 2.20277,-22.949219 z m -24.72751,2.90625 -2.67746,0.03711 0.89743,40.400391 2.67992,-0.03711 z m 32.94776,0.953125 -6.53911,40.542968 2.65768,0.267579 6.53911,-40.542969 z m -48.72818,17.277343 -0.0223,15.837891 2.67993,0.002 0.0197,-15.835937 z m -13.3576,11.298829 -0.94935,11.349609 2.6725,0.138672 0.94935,-11.34961 z"
       id="path43" />
    <g
       id="layer2"
       transform="translate(-0.00370223,-0.00188878)">
      <circle
         style="display:inline;fill:#9a35c4;fill-opacity:1;stroke:none;stroke-width:1.71888;stroke-linejoin:round;stroke-miterlimit:2;stroke-dasharray:none;stroke-dashoffset:0;stroke-opacity:0.358974;paint-order:markers stroke fill"
         id="path13"
         cx="239.37996"
         cy="25.163424"
         r="0.87359506" />
      <circle
         style="display:inline;fill:#9a35c4;fill-opacity:1;stroke:none;stroke-width:1.71888;stroke-linejoin:round;stroke-miterlimit:2;stroke-dasharray:none;stroke-dashoffset:0;stroke-opacity:0.358974;paint-order:markers stroke fill"
         id="path13-5"
         cx="247.65234"
         cy="29.036358"
         r="0.87359506" />
    </g>
  </g>
  <path
     style="display:inline;fill:none;stroke:#357ba3;stroke-width:1.05833;stroke-linejoin:round;stroke-miterlimit:2;stroke-dasharray:none;stroke-dashoffset:0;stroke-opacity:1;paint-order:markers stroke fill"
     d="M 86.190131,0.25571568 V 74.904093"
     id="path11" />
  <path
     style="display:inline;fill:none;stroke:#357ba3;stroke-width:1.05833;stroke-linejoin:round;stroke-miterlimit:2;stroke-dasharray:none;stroke-dashoffset:0;stroke-opacity:1;paint-order:markers stroke fill"
     d="M 171.91518,0.25571568 V 74.904093"
     id="path12" />
</svg>
