<?xml version="1.0" encoding="UTF-8" standalone="no"?>
<!-- Created with Inkscape (http://www.inkscape.org/) -->

<svg
   width="297mm"
   height="210mm"
   viewBox="0 0 297 210"
   version="1.1"
   id="svg1"
   xml:space="preserve"
   xmlns="http://www.w3.org/2000/svg"
   xmlns:svg="http://www.w3.org/2000/svg"><defs
     id="defs1"><clipPath
       clipPathUnits="userSpaceOnUse"
       id="clipPath115"><path
         d="m 158.68489,116.71897 -1.16892,-0.0822 c -7.86554,0.65009 -15.7309,1.30006 -27.53321,-1.90996 -11.80231,-3.21001 -27.5402,-10.27979 -37.866419,-13.97951 -10.110277,-3.622306 -15.031818,-4.013842 -19.844782,-4.337682 -4.023836,13.582762 -8.29002,27.093842 -12.796636,40.524142 -1.113187,3.31744 -2.240833,6.62989 -3.383256,9.93738 0,0 0,0 0,0 -7.721627,22.35529 -16.110151,44.48049 -25.149887,66.336 h 93.17519 c 9.71919,-23.69004 18.6344,-47.71005 26.72395,-72.00491 2.7074,-8.13096 5.32225,-16.2928 7.84397,-24.48326 z"
         style="display:inline;fill:#e3a1f1;fill-opacity:1;stroke-width:1.5875;stroke-linecap:square;stroke-miterlimit:2;paint-order:markers stroke fill"
         id="path115" /></clipPath><clipPath
       clipPathUnits="userSpaceOnUse"
       id="clipPath116"><path
         d="m 56.091667,146.87114 c -7.784481,1.58639 -15.572783,3.16535 -24.877551,1.58853 -9.326756,-1.58055 -20.176235,-6.33153 -28.0582364,-8.87181 -3.5759412,-1.15248 -6.5409693,-1.84979 -9.1720498,-2.29857 v 75.91785 H 30.94178 c 9.039736,-21.85551 17.42826,-43.98071 25.149887,-66.336 z"
         style="display:inline;fill:#e3a1f1;fill-opacity:1;stroke-width:1.5875;stroke-linecap:square;stroke-miterlimit:2;paint-order:markers stroke fill"
         id="path116" /></clipPath><clipPath
       clipPathUnits="userSpaceOnUse"
       id="clipPath117"><path
         d="m 236.08068,105.36153 -0.49919,0.077 c -7.80287,1.59016 -15.60558,3.18044 -24.93233,1.5999 -9.32676,-1.58054 -20.17624,-6.33153 -28.05824,-8.871812 -7.74477,-2.49605 -12.62342,-2.85751 -17.45216,-3.181717 -2.07863,7.265999 -4.23005,14.511189 -6.45387,21.734069 v 0 c -2.52172,8.19046 -5.13657,16.3523 -7.84397,24.48326 -8.08955,24.29486 -17.00476,48.31487 -26.72395,72.00491 h 76.07546 c 9.36126,-23.66468 17.84225,-47.67801 25.41757,-71.97338 3.70807,-11.89241 7.1988,-23.85253 10.47068,-35.87223 z"
         style="display:inline;fill:#e3a1f1;fill-opacity:1;stroke-width:1.5875;stroke-linecap:square;stroke-miterlimit:2;paint-order:markers stroke fill"
         id="path117" /></clipPath><clipPath
       clipPathUnits="userSpaceOnUse"
       id="clipPath118"><path
         d="m 300.06901,39.533505 c -3.94626,-1.124371 -7.76954,-2.204514 -11.66077,-3.0763 -11.33866,-2.540275 -23.25372,-3.312589 -35.16892,-4.085021 l -0.12557,-0.0062 c -4.78656,24.52841 -10.46909,48.881906 -17.03307,72.995546 v 0 c -3.27188,12.0197 -6.76261,23.97982 -10.47068,35.87223 -7.57532,24.29537 -16.05631,48.3087 -25.41757,71.97338 h 99.87658 z"
         style="display:inline;fill:#e3a1f1;fill-opacity:1;stroke-width:1.5875;stroke-linecap:square;stroke-miterlimit:2;paint-order:markers stroke fill"
         id="path118" /></clipPath><clipPath
       clipPathUnits="userSpaceOnUse"
       id="clipPath120"><path
         d="m 56.091667,146.87114 c -7.784481,1.58639 -15.572783,3.16535 -24.877551,1.58853 -9.326756,-1.58055 -20.176235,-6.33153 -28.0582364,-8.87181 -3.5759412,-1.15248 -6.5409693,-1.84979 -9.1720498,-2.29857 v 75.91785 H 30.94178 c 9.039736,-21.85551 17.42826,-43.98071 25.149887,-66.336 z"
         style="display:inline;fill:#e3a1f1;fill-opacity:1;stroke-width:1.5875;stroke-linecap:square;stroke-miterlimit:2;paint-order:markers stroke fill"
         id="path121" /></clipPath><clipPath
       clipPathUnits="userSpaceOnUse"
       id="clipPath122"><path
         d="m 158.68489,116.71897 -1.16892,-0.0822 c -7.86554,0.65009 -15.7309,1.30006 -27.53321,-1.90996 -11.80231,-3.21001 -27.5402,-10.27979 -37.866419,-13.97951 -10.110277,-3.622306 -15.031818,-4.013842 -19.844782,-4.337682 -4.023836,13.582762 -8.29002,27.093842 -12.796636,40.524142 -1.113187,3.31744 -2.240833,6.62989 -3.383256,9.93738 0,0 0,0 0,0 -7.721627,22.35529 -16.110151,44.48049 -25.149887,66.336 h 93.17519 c 9.71919,-23.69004 18.6344,-47.71005 26.72395,-72.00491 2.7074,-8.13096 5.32225,-16.2928 7.84397,-24.48326 z"
         style="display:inline;fill:#e3a1f1;fill-opacity:1;stroke-width:1.5875;stroke-linecap:square;stroke-miterlimit:2;paint-order:markers stroke fill"
         id="path123" /></clipPath><clipPath
       clipPathUnits="userSpaceOnUse"
       id="clipPath125"><path
         d="m 300.06901,39.533505 c -3.94626,-1.124371 -7.76954,-2.204514 -11.66077,-3.0763 -11.33866,-2.540275 -23.25372,-3.312589 -35.16892,-4.085021 l -0.12557,-0.0062 c -4.78656,24.52841 -10.46909,48.881906 -17.03307,72.995546 v 0 c -3.27188,12.0197 -6.76261,23.97982 -10.47068,35.87223 -7.57532,24.29537 -16.05631,48.3087 -25.41757,71.97338 h 99.87658 z"
         style="display:inline;fill:#e3a1f1;fill-opacity:1;stroke-width:1.5875;stroke-linecap:square;stroke-miterlimit:2;paint-order:markers stroke fill"
         id="path126" /></clipPath><clipPath
       clipPathUnits="userSpaceOnUse"
       id="clipPath133"><path
         d="m 236.08068,105.36153 -0.49919,0.077 c -7.80287,1.59016 -15.60558,3.18044 -24.93233,1.5999 -9.32676,-1.58054 -20.17624,-6.33153 -28.05824,-8.871812 -7.74477,-2.49605 -12.62342,-2.85751 -17.45216,-3.181717 -2.07863,7.265999 -4.23005,14.511189 -6.45387,21.734069 v 0 c -2.52172,8.19046 -5.13657,16.3523 -7.84397,24.48326 -8.08955,24.29486 -17.00476,48.31487 -26.72395,72.00491 h 76.07546 c 9.36126,-23.66468 17.84225,-47.67801 25.41757,-71.97338 3.70807,-11.89241 7.1988,-23.85253 10.47068,-35.87223 z"
         style="display:inline;fill:#e3a1f1;fill-opacity:1;stroke-width:1.5875;stroke-linecap:square;stroke-miterlimit:2;paint-order:markers stroke fill"
         id="path134" /></clipPath><clipPath
       clipPathUnits="userSpaceOnUse"
       id="clipPath176"><rect
         style="display:inline;fill:none;fill-opacity:1;stroke:none;stroke-width:1.5875;stroke-linecap:square;stroke-miterlimit:2;stroke-dasharray:none;stroke-opacity:1;paint-order:markers stroke fill"
         id="rect177"
         width="297.04608"
         height="199.64816"
         x="-224.04953"
         y="219.71254"
         d="M -224.04953,219.71254 H 72.996552 V 419.3607 H -224.04953 Z" /></clipPath><clipPath
       clipPathUnits="userSpaceOnUse"
       id="clipPath179"><rect
         style="display:inline;fill:none;fill-opacity:1;stroke:none;stroke-width:1.5875;stroke-linecap:square;stroke-miterlimit:2;stroke-dasharray:none;stroke-opacity:1;paint-order:markers stroke fill"
         id="rect180"
         width="297.04608"
         height="199.64815"
         x="-226.69376"
         y="92.484505"
         transform="rotate(-10.961657)"
         d="M -226.69376,92.484505 H 70.352325 V 292.13265 H -226.69376 Z" /></clipPath><clipPath
       clipPathUnits="userSpaceOnUse"
       id="clipPath180"><rect
         style="display:inline;fill:none;fill-opacity:1;stroke:none;stroke-width:1.62837;stroke-linecap:square;stroke-miterlimit:2;stroke-dasharray:none;stroke-opacity:1;paint-order:markers stroke fill"
         id="rect181"
         width="297.04608"
         height="210.06012"
         x="-0.034797855"
         y="-0.036962487" /></clipPath><clipPath
       clipPathUnits="userSpaceOnUse"
       id="clipPath198"><rect
         style="display:inline;fill:none;fill-opacity:1;stroke:none;stroke-width:1.62837;stroke-linecap:square;stroke-miterlimit:2;stroke-dasharray:none;stroke-opacity:1;paint-order:markers stroke fill"
         id="rect198"
         width="297.04608"
         height="210.06012"
         x="-0.034797855"
         y="-0.036962487" /></clipPath><clipPath
       clipPathUnits="userSpaceOnUse"
       id="clipPath199"><rect
         style="display:inline;fill:none;fill-opacity:1;stroke:none;stroke-width:1.62837;stroke-linecap:square;stroke-miterlimit:2;stroke-dasharray:none;stroke-opacity:1;paint-order:markers stroke fill"
         id="rect199"
         width="297.04608"
         height="210.06012"
         x="-0.034797855"
         y="-0.036962487" /></clipPath><clipPath
       clipPathUnits="userSpaceOnUse"
       id="clipPath203"><rect
         style="display:inline;fill:none;fill-opacity:1;stroke:none;stroke-width:1.62837;stroke-linecap:square;stroke-miterlimit:2;stroke-dasharray:none;stroke-opacity:1;paint-order:markers stroke fill"
         id="rect203"
         width="297.04608"
         height="210.06012"
         x="-0.034797855"
         y="-0.036962487" /></clipPath><clipPath
       clipPathUnits="userSpaceOnUse"
       id="clipPath204"><path
         id="path204"
         style="display:inline;fill:#e3a1f1;fill-opacity:1;stroke:none;stroke-width:1.62837;stroke-linecap:square;stroke-miterlimit:2;stroke-dasharray:none;stroke-opacity:1;paint-order:markers fill stroke"
         d="m 253.11375,20.449016 c -4.78656,25.807614 -10.46909,51.431178 -17.03307,76.802383 l -0.49919,0.08101 c -7.80287,1.6731 -15.60558,3.346311 -24.93233,1.683338 -9.32676,-1.662958 -20.17624,-6.66173 -28.05824,-9.33449 -7.74477,-2.626223 -12.62342,-3.006533 -17.45216,-3.347651 -2.07863,7.644944 -4.23005,15.267974 -6.45387,22.867544 l -1.16892,-0.0865 c -7.86554,0.684 -15.7309,1.36786 -27.53321,-2.00956 C 118.18045,103.7277 102.44256,96.289206 92.11634,92.39654 82.00606,88.585373 77.08452,88.173371 72.27156,87.832643 68.24772,102.12378 63.98154,116.33947 59.47492,130.47018 c -1.11318,3.49045 -2.24083,6.97565 -3.38325,10.45563 -7.78448,1.66913 -15.57279,3.33043 -24.87755,1.67138 -9.32676,-1.66298 -20.17624,-6.66173 -28.05824,-9.33449 -3.57594,-1.21258 -6.54097,-1.94626 -9.17205,-2.41844 v 79.87709 h 36.95795 93.17519 76.07546 99.87658 V 27.990331 c -3.94626,-1.183007 -7.76954,-2.319478 -11.66077,-3.236723 -11.33866,-2.672761 -23.25372,-3.485352 -35.16892,-4.298068 z"
         clip-path="url(#clipPath203)"
         transform="matrix(1,0,0,0.95043339,-198.93327,77.686385)" /></clipPath><clipPath
       clipPathUnits="userSpaceOnUse"
       id="clipPath281"><path
         d="m 72.996598,238.70459 -43.933237,0.46217 -3.747571,-0.25245 -78.09756,62.85395 -6.09214,0.0295 -93.05116,1.47099 -72.12428,-0.31237 v 116.4045 H 72.996598 Z"
         style="display:inline;fill:none;stroke:#111111;stroke-width:0.0515886;stroke-linecap:square;stroke-miterlimit:2;stroke-dasharray:none;stroke-opacity:1;paint-order:markers stroke fill"
         id="path281" /></clipPath><clipPath
       clipPathUnits="userSpaceOnUse"
       id="clipPath282"><path
         d="m -38.457591,272.78171 -186.101589,2.80646 0.50983,27.36818 72.12428,0.31237 93.05116,-1.471 6.09214,-0.0295 78.09756,-62.85395 3.747571,0.25245 43.933237,-0.46217 v -10.88447 l -56.645998,-0.052 z"
         style="display:inline;fill:none;stroke:#111111;stroke-width:0.0515886;stroke-linecap:square;stroke-miterlimit:2;stroke-dasharray:none;stroke-opacity:1;paint-order:markers stroke fill"
         id="path282" /></clipPath><clipPath
       clipPathUnits="userSpaceOnUse"
       id="clipPath4"><path
         d="M -0.03462321,-0.03720703 V 132.25704 c 1.00923714,0.29265 2.06977971,0.6256 3.19050281,1.00563 7.8820014,2.67276 18.7314804,7.67133 28.0582364,9.33431 9.304768,1.65905 17.09307,-0.002 24.877551,-1.67122 1.142423,-3.47998 2.270069,-6.96524 3.383256,-10.45569 4.506616,-14.13071 8.7728,-28.34606 12.796636,-42.637188 4.812964,0.340728 9.734505,0.752372 19.844782,4.563544 10.326219,3.892667 26.064109,11.331254 37.866419,14.708664 11.80231,3.37742 19.66767,2.6937 27.53321,2.0097 l 1.16892,0.0863 c 2.22382,-7.59957 4.37524,-15.222408 6.45387,-22.867342 4.82874,0.341114 9.70739,0.721379 17.45216,3.347601 7.882,2.67276 18.73148,7.671345 28.05824,9.334312 9.32675,1.662959 17.12946,-0.01 24.93233,-1.683102 l 0.49919,-0.08113 c 6.56398,-25.371211 12.24651,-50.99494 17.03307,-76.802547 l 0.12557,0.0067 c 11.9152,0.812716 23.83026,1.625173 35.16892,4.297929 2.87909,0.678668 5.72106,1.47721 8.60309,2.325958 V -0.03720703 Z"
         style="display:inline;fill:none;fill-opacity:1;stroke:none;stroke-width:1.62837;stroke-linecap:square;stroke-miterlimit:2;stroke-opacity:1;paint-order:markers stroke fill"
         id="path5" /></clipPath><clipPath
       clipPathUnits="userSpaceOnUse"
       id="clipPath5"><path
         d="M -0.03462321,-0.03720703 V 132.25704 c 1.00923714,0.29265 2.06977971,0.6256 3.19050281,1.00563 7.8820014,2.67276 18.7314804,7.67133 28.0582364,9.33431 9.304768,1.65905 17.09307,-0.002 24.877551,-1.67122 1.142423,-3.47998 2.270069,-6.96524 3.383256,-10.45569 4.506616,-14.13071 8.7728,-28.34606 12.796636,-42.637188 4.812964,0.340728 9.734505,0.752372 19.844782,4.563544 10.326219,3.892667 26.064109,11.331254 37.866419,14.708664 11.80231,3.37742 19.66767,2.6937 27.53321,2.0097 l 1.16892,0.0863 c 2.22382,-7.59957 4.37524,-15.222408 6.45387,-22.867342 4.82874,0.341114 9.70739,0.721379 17.45216,3.347601 7.882,2.67276 18.73148,7.671345 28.05824,9.334312 9.32675,1.662959 17.12946,-0.01 24.93233,-1.683102 l 0.49919,-0.08113 c 6.56398,-25.371211 12.24651,-50.99494 17.03307,-76.802547 l 0.12557,0.0067 c 11.9152,0.812716 23.83026,1.625173 35.16892,4.297929 2.87909,0.678668 5.72106,1.47721 8.60309,2.325958 V -0.03720703 Z"
         style="display:inline;fill:none;fill-opacity:1;stroke:none;stroke-width:1.62837;stroke-linecap:square;stroke-miterlimit:2;stroke-opacity:1;paint-order:markers stroke fill"
         id="path6" /></clipPath></defs><g
     id="layer1"><rect
       style="display:inline;fill:#e4e4e4;fill-opacity:1;stroke:none;stroke-width:1.62837;stroke-linecap:square;stroke-miterlimit:2;stroke-dasharray:none;stroke-opacity:1;paint-order:markers stroke fill"
       id="rect167"
       width="297.04608"
       height="210.06012"
       x="-0.034797855"
       y="-0.036962487" /></g><g
     id="layer16"
     style="display:inline"><path
       id="path171"
       style="display:inline;fill:none;fill-opacity:1;stroke:#111111;stroke-width:1.5875;stroke-linecap:square;stroke-miterlimit:2;stroke-dasharray:none;stroke-opacity:1;paint-order:markers stroke fill"
       transform="matrix(1,0,0,1.0521516,224.01473,-231.20786)"
       d="M 37.942209,186.64235 C 30.197901,241.30665 18.02958,295.34357 1.5953452,348.05102 -11.004997,388.46251 -26.11066,428.09267 -43.606088,466.63832 m 11.465869,-281.17804 c -9.63398,55.10136 -23.362102,109.48644 -41.033832,162.55888 -11.199453,33.63464 -23.981011,66.74243 -38.288269,99.17728 m -8.28353,-281.42156 c -10.32271,60.35993 -25.3134,119.92097 -44.7941,177.97596 -11.27714,33.60735 -24.05689,66.71044 -38.28827,99.17728"
       clip-path="url(#clipPath176)" /></g><g
     id="g177"
     style="display:none"><path
       id="path166"
       style="display:inline;fill:#efc1fd;fill-opacity:1;stroke:none;stroke-width:1.62837;stroke-linecap:square;stroke-miterlimit:2;stroke-dasharray:none;stroke-opacity:1;paint-order:markers fill stroke"
       d="M 253.11375,20.449016 C 248.32719,46.256624 242.64466,71.88019 236.08068,97.2514 l -0.49919,0.08102 c -7.80287,1.67309 -15.60558,3.3463 -24.93233,1.683337 -9.32676,-1.662967 -20.17624,-6.661729 -28.05824,-9.334491 -7.74477,-2.626222 -12.62342,-3.006535 -17.45216,-3.34765 -2.07863,7.644934 -4.23005,15.267964 -6.45387,22.867534 l -1.16892,-0.0865 c -7.86554,0.684 -15.7309,1.36786 -27.53321,-2.00956 C 118.18045,103.72768 102.44256,96.289197 92.116341,92.396531 82.006063,88.585357 77.084523,88.17336 72.271558,87.832633 68.247722,102.12376 63.98154,116.33946 59.474923,130.47017 c -1.113186,3.49045 -2.240833,6.97565 -3.383256,10.45563 -7.78448,1.66913 -15.572783,3.33043 -24.877552,1.67138 -9.326755,-1.66298 -20.176234,-6.66173 -28.0582353,-9.33449 -3.57594127,-1.21258 -6.5409694,-1.94626 -9.1720499,-2.41844 v 79.87709 h 36.9579512 93.175189 76.07546 99.87659 V 27.990335 c -3.94627,-1.183007 -7.76955,-2.319482 -11.66078,-3.236732 -11.33866,-2.672756 -23.25372,-3.485347 -35.16892,-4.298063 z"
       clip-path="url(#clipPath180)" /><path
       id="path4-7-8"
       style="display:inline;fill:none;stroke:#9a35c4;stroke-width:1.5875;stroke-linecap:square;stroke-miterlimit:2;stroke-dasharray:none;stroke-opacity:1;paint-order:markers stroke fill"
       transform="matrix(0.98175466,0.20006878,-0.19015204,1.0329548,226.65896,-97.344688)"
       d="m 47.385231,104.86427 c 11.844678,-1.50736 23.689118,-3.01468 35.303932,-2.67682 11.614814,0.33787 22.998837,2.52085 38.022177,1.67235 15.02334,-0.8485 33.68454,-4.72845 52.34615,-8.60849 m -368.79974,162.65315 c 4.88637,-0.61102 9.77265,-1.22202 17.99388,-0.22687 8.22123,0.99516 19.77653,3.59634 29.23366,3.37454 9.45713,-0.2218 16.8151,-3.26661 24.17323,-6.31149 m 96.884068,-71.62169 c 4.886371,-0.61102 9.772645,-1.22202 17.9938766,-0.22687 8.2212318,0.99516 19.7765324,3.59634 29.2336614,3.37454 9.45713,-0.2218 16.8151,-3.26661 24.173231,-6.31149 m -162.353827,22.22792 c 4.88637,-0.61102 9.77264,-1.22202 20.613965,0.44664 10.841326,1.66867 27.636501,5.61678 39.833866,6.524 12.197365,0.90722 19.795623,-1.22661 27.394034,-3.36049"
       clip-path="url(#clipPath179)" /><path
       id="path177"
       style="display:inline;fill:none;fill-opacity:1;stroke:#111111;stroke-width:1.5875;stroke-linecap:square;stroke-miterlimit:2;stroke-dasharray:none;stroke-opacity:0.272549;paint-order:markers stroke fill"
       transform="matrix(1,0,0,1.0521516,224.01473,-231.20786)"
       d="M 37.942209,186.64235 C 30.197901,241.30665 18.02958,295.34357 1.5953452,348.05102 -11.004997,388.46251 -26.11066,428.09267 -43.606088,466.63832 m 11.465869,-281.17804 c -9.63398,55.10136 -23.362102,109.48644 -41.033832,162.55888 -11.199453,33.63464 -23.981011,66.74243 -38.288269,99.17728 m -8.28353,-281.42156 c -10.32271,60.35993 -25.3134,119.92097 -44.7941,177.97596 -11.27714,33.60735 -24.05689,66.71044 -38.28827,99.17728"
       clip-path="url(#clipPath176)" /></g><g
     id="g183"
     style="display:none"><path
       id="path181"
       style="display:inline;fill:#efc1fd;fill-opacity:1;stroke:#9a35c4;stroke-width:1.62837;stroke-linecap:square;stroke-miterlimit:2;stroke-dasharray:none;stroke-opacity:1;paint-order:markers fill stroke"
       d="M 253.11375,20.449016 C 248.32719,46.256624 242.64466,71.88019 236.08068,97.2514 l -0.49919,0.08102 c -7.80287,1.67309 -15.60558,3.3463 -24.93233,1.683337 -9.32676,-1.662967 -20.17624,-6.661729 -28.05824,-9.334491 -7.74477,-2.626222 -12.62342,-3.006535 -17.45216,-3.34765 -2.07863,7.644934 -4.23005,15.267964 -6.45387,22.867534 l -1.16892,-0.0865 c -7.86554,0.684 -15.7309,1.36786 -27.53321,-2.00956 C 118.18045,103.72768 102.44256,96.289197 92.116341,92.396531 82.006063,88.585357 77.084523,88.17336 72.271558,87.832633 68.247722,102.12376 63.98154,116.33946 59.474923,130.47017 c -1.113186,3.49045 -2.240833,6.97565 -3.383256,10.45563 -7.78448,1.66913 -15.572783,3.33043 -24.877552,1.67138 -9.326755,-1.66298 -20.176234,-6.66173 -28.0582353,-9.33449 -3.57594127,-1.21258 -6.5409694,-1.94626 -9.1720499,-2.41844 v 79.87709 h 36.9579512 93.175189 76.07546 99.87659 V 27.990335 c -3.94627,-1.183007 -7.76955,-2.319482 -11.66078,-3.236732 -11.33866,-2.672756 -23.25372,-3.485347 -35.16892,-4.298063 z"
       clip-path="url(#clipPath180)" /></g><g
     id="g188"
     style="display:none"><path
       id="path186"
       style="display:inline;fill:#fdc1cb;fill-opacity:1;stroke:none;stroke-width:1.62837;stroke-linecap:square;stroke-miterlimit:2;stroke-dasharray:none;stroke-opacity:1;paint-order:markers fill stroke"
       d="M 253.11375,20.449016 C 248.32719,46.256624 242.64466,71.88019 236.08068,97.2514 l -0.49919,0.08102 c -7.80287,1.67309 -15.60558,3.3463 -24.93233,1.683337 -9.32676,-1.662967 -20.17624,-6.661729 -28.05824,-9.334491 -7.74477,-2.626222 -12.62342,-3.006535 -17.45216,-3.34765 -2.07863,7.644934 -4.23005,15.267964 -6.45387,22.867534 l -1.16892,-0.0865 c -7.86554,0.684 -15.7309,1.36786 -27.53321,-2.00956 C 118.18045,103.72768 102.44256,96.289197 92.116341,92.396531 82.006063,88.585357 77.084523,88.17336 72.271558,87.832633 68.247722,102.12376 63.98154,116.33946 59.474923,130.47017 c -1.113186,3.49045 -2.240833,6.97565 -3.383256,10.45563 -7.78448,1.66913 -15.572783,3.33043 -24.877552,1.67138 -9.326755,-1.66298 -20.176234,-6.66173 -28.0582353,-9.33449 -3.57594127,-1.21258 -6.5409694,-1.94626 -9.1720499,-2.41844 v 79.87709 h 36.9579512 93.175189 76.07546 99.87659 V 27.990335 c -3.94627,-1.183007 -7.76955,-2.319482 -11.66078,-3.236732 -11.33866,-2.672756 -23.25372,-3.485347 -35.16892,-4.298063 z"
       clip-path="url(#clipPath180)" /><g
       id="g198"
       clip-path="url(#clipPath198)"
       style="display:inline"><path
         id="path193"
         style="fill:#71c837;fill-opacity:1;stroke:#037f05;stroke-width:1.5875;stroke-linecap:square;stroke-miterlimit:2;stroke-dasharray:none;stroke-opacity:1;paint-order:markers stroke fill"
         d="M 245.76691,74.126855 368.60846,65.884232 M 238.51334,97.95374 361.35489,89.711117 m -133.9266,48.569113 122.84155,-8.24262 m -127.17817,20.81188 122.84155,-8.24262 m -136.67718,48.83449 122.84155,-8.24262"
         clip-path="url(#clipPath118)"
         transform="matrix(1,0,0,1.0521516,0,-13.604906)" /><path
         id="path194"
         style="fill:#71c837;fill-opacity:1;stroke:#037f05;stroke-width:1.5875;stroke-linecap:square;stroke-miterlimit:2;stroke-dasharray:none;stroke-opacity:1;paint-order:markers stroke fill"
         d="m 139.32204,134.18727 122.84155,-8.24262 M 118.61655,171.77902 241.4581,163.5364 m -125.85312,40.46379 122.84155,-8.24262"
         clip-path="url(#clipPath117)"
         transform="matrix(1,0,0,1.0521516,0,-13.604906)" /><path
         id="path195"
         style="fill:#71c837;fill-opacity:1;stroke:#037f05;stroke-width:1.5875;stroke-linecap:square;stroke-miterlimit:2;stroke-dasharray:none;stroke-opacity:1;paint-order:markers stroke fill"
         d="M 48.676338,121.2807 171.51789,113.03808 M 27.830471,181.72027 150.67202,173.47765 M 33.12428,158.02069 155.96583,149.77807"
         clip-path="url(#clipPath115)"
         transform="matrix(1,0,0,1.0521516,0,-13.604906)" /><path
         style="fill:#71c837;fill-opacity:1;stroke:#037f05;stroke-width:1.5875;stroke-linecap:square;stroke-miterlimit:2;stroke-dasharray:none;stroke-opacity:1;paint-order:markers stroke fill"
         d="m -51.830377,174.8411 122.84155,-8.24262"
         id="path196"
         clip-path="url(#clipPath116)"
         transform="matrix(1,0,0,1.0521516,0,-13.604906)" /></g><g
       id="layer7"
       style="display:inline"
       clip-path="url(#clipPath199)"><path
         id="path119-83-3-1"
         style="fill:#faa403;fill-opacity:1;stroke:none;stroke-width:1.5875;stroke-linecap:square;stroke-miterlimit:2;stroke-dasharray:none;stroke-opacity:1;paint-order:markers stroke fill"
         d="m 271.19433,50.078294 c -10.61065,-18.1838 -19.51718,-37.33922 -28.1166,-56.5560504 -10.54538,-23.5654216 -8.38299,-23.3396916 -0.34935,-10.6937816 7.04471,11.0892216 22.36484,34.789842 31.79289,53.158292 8.78553,17.11663 13.55654,24.66018 22.97635,52.94872 2.31343,6.94743 -18.42038,-25.348 -26.30329,-38.85718 z m -2.73336,4.308898 c -5.44557,-15.30346 -9.45115,-31.092069 -13.21372,-46.882136 -4.61401,-19.363215 -2.99868,-18.875884 1.28726,-8.13727496 3.75835,9.41670596 11.99192,29.58132796 16.50932,44.85124096 4.20953,14.22925 6.75001,20.63196 9.81998,43.40173 0.75397,5.59208 -10.3572,-21.86427 -14.40284,-33.23356 z m 16.5806,89.381058 c -10.61065,-18.1838 -19.51718,-37.33922 -28.1166,-56.556049 -10.54538,-23.565422 -8.38299,-23.339692 -0.34935,-10.693782 7.04471,11.089222 22.36484,34.789841 31.79289,53.158291 8.78553,17.11663 13.55654,24.66018 22.97635,52.94872 2.31343,6.94743 -18.42038,-25.348 -26.30329,-38.85718 z m -68.57547,17.06063 c -10.61065,-18.1838 -19.51718,-37.33922 -28.1166,-56.55605 -10.54538,-23.565422 -8.38299,-23.339692 -0.34935,-10.693782 7.04471,11.089222 22.36484,34.789842 31.79289,53.158292 8.78553,17.11663 13.55654,24.66018 22.97635,52.94872 2.31343,6.94743 -18.42038,-25.348 -26.30329,-38.85718 z m 88.68861,44.09669 c -11.66116,-17.52866 -22.18234,-35.83491 -31.9069,-54.50761 -5.00089,-9.60251 -38.18892,-26.38124 -13.56043,-29.51388 13.03268,-1.6577 45.35053,63.59568 66.44134,96.44748 15.79681,24.6057 61.4003,63.96322 44.96691,75.31796 -6.02429,4.16252 -45.67595,-57.28234 -65.94092,-87.74395 z m -34.83169,-61.7821 c -11.66116,-17.52866 -22.18234,-35.83491 -31.9069,-54.50761 -5.00089,-9.60251 -38.18892,-26.38124 -13.56043,-29.51388 13.03268,-1.6577 45.35053,63.59568 66.44134,96.44748 15.79681,24.6057 61.4003,63.96322 44.96691,75.31796 -6.02429,4.16252 -45.67595,-57.28234 -65.94092,-87.74395 z m -7.16612,23.9781 c -8.13667,-19.34242 -15.02241,-39.24313 -21.06638,-59.36002 -3.10812,-10.345192 -32.31885,-32.844067 -7.79251,-31.469145 12.97862,0.727571 32.47993,70.726555 46.98615,106.839425 10.86502,27.04822 48.02267,73.99095 29.96353,82.18184 -6.62027,3.00269 -33.95076,-64.5785 -48.09079,-98.1921 z m 2.99977,34.15775 c -11.66116,-17.52866 -22.18234,-35.83491 -31.9069,-54.50761 -5.00089,-9.60251 -38.18892,-26.38124 -13.56043,-29.51388 13.03268,-1.6577 45.35053,63.59568 66.44134,96.44748 15.79681,24.6057 61.4003,63.96322 44.96691,75.31796 -6.02429,4.16252 -45.67595,-57.28234 -65.94092,-87.74395 z"
         clip-path="url(#clipPath125)"
         transform="matrix(1,0,0,1.0521516,0,-13.604906)" /><path
         id="path119-83-1-82"
         style="fill:#faa403;fill-opacity:1;stroke:none;stroke-width:1.22721;stroke-linecap:square;stroke-miterlimit:2;stroke-dasharray:none;stroke-opacity:1;paint-order:markers stroke fill"
         d="M 113.5123,155.97428 C 105.32208,141.94678 98.456864,127.17541 91.830158,112.35753 83.703883,94.186478 85.381583,94.365664 91.5854,104.1227 c 5.440141,8.55596 17.27182,26.84298 24.54374,41.0097 6.77633,13.20125 10.46058,19.02148 17.70161,40.8264 1.77836,5.35511 -14.23376,-19.56317 -20.31845,-29.98452 z m 9.97541,7.58176 c -5.44557,-15.30346 -9.45115,-31.09206 -13.21372,-46.88213 -4.61401,-19.363219 -2.99868,-18.875888 1.28726,-8.13728 3.75835,9.41671 11.99192,29.58133 16.50932,44.85124 4.20953,14.22925 6.75001,20.63196 9.81998,43.40173 0.75397,5.59208 -10.3572,-21.86427 -14.40284,-33.23356 z m -40.607201,57.32618 c -9.200112,-18.9366 -16.627284,-38.71267 -23.743574,-58.52669 -8.726624,-24.29773 -6.587605,-23.90855 0.463188,-10.68945 6.182856,11.59186 19.660208,36.38675 27.667119,55.4177 7.461245,17.734 11.646021,25.61786 18.891898,54.53968 1.77953,7.10295 -16.443643,-26.6728 -23.278631,-40.74124 z M 60.335276,200.24179 c -8.014152,-19.46818 -14.206943,-39.66485 -20.087102,-59.8802 -7.210775,-24.78989 -5.09984,-24.26947 1.121872,-10.64051 5.455828,11.95127 17.377596,37.5305 24.194997,57.01924 6.352797,18.16058 10.043155,26.28763 15.490681,55.60143 1.33787,7.19922 -14.766538,-27.63659 -20.720448,-42.09996 z M 80.366246,93.613081 C 77.724944,72.795825 76.43857,51.77686 76.021097,30.775799 75.806426,19.975923 53.713734,-9.5432075 76.969097,-1.6299345 89.275152,2.5575403 89.254652,75.222238 93.526042,113.9046 96.72527,142.87733 119.906,198.07666 100.31029,201.11492 93.126731,202.22873 84.956328,129.78966 80.366246,93.613081 Z M 73.54527,143.04766 C 65.4086,123.70524 58.52286,103.80453 52.47889,83.68764 49.37077,73.342448 20.16004,50.843573 44.68638,52.218495 57.665,52.946066 77.16631,122.94505 91.67253,159.05792 c 10.86502,27.04822 48.02267,73.99095 29.96353,82.18184 -6.62027,3.00269 -33.95076,-64.5785 -48.09079,-98.1921 z"
         clip-path="url(#clipPath122)"
         transform="matrix(1,0,0,1.0521516,0,-13.604906)" /><path
         id="path125"
         style="display:inline;fill:#faa403;fill-opacity:1;stroke:none;stroke-width:1.5875;stroke-linecap:square;stroke-miterlimit:2;stroke-dasharray:none;stroke-opacity:1;paint-order:markers stroke fill"
         d="m 137.45127,175.57874 c -10.61065,-18.1838 -19.51718,-37.33922 -28.1166,-56.55605 -10.545382,-23.56542 -8.38299,-23.33969 -0.34935,-10.69378 7.04471,11.08922 22.36484,34.78984 31.79289,53.15829 8.78553,17.11663 13.55654,24.66018 22.97635,52.94872 2.31343,6.94743 -18.42038,-25.348 -26.30329,-38.85718 z m 46.22031,-24.85605 c -7.16366,-14.57848 -12.95243,-29.80395 -18.49996,-45.05871 -6.80289,-18.706793 -5.14235,-18.407812 0.34613,-8.231197 4.81287,8.923897 15.30332,28.011957 21.54108,42.663487 5.81265,13.65301 9.07023,19.72236 14.72969,41.99022 1.38993,5.46881 -12.79489,-20.53311 -18.11694,-31.3638 z m 15.89831,-6.55985 c -4.15469,-10.76652 -7.31189,-21.9138 -10.29898,-33.06805 -3.66303,-13.678362 -2.52106,-13.370762 0.71974,-5.82713 2.84185,6.61502 9.05727,20.77567 12.56128,31.541 3.2652,10.03165 5.18701,14.52977 7.84492,30.67217 0.65276,3.96443 -7.74035,-15.31929 -10.82696,-23.31799 z m -98.76628,-22.4199 C 90.192961,103.55914 81.286431,84.403716 72.687011,65.186886 62.141631,41.621464 64.304021,41.847194 72.337661,54.493104 c 7.04471,11.089222 22.36484,34.789842 31.792889,53.158296 8.78553,17.11663 13.55654,24.66018 22.97635,52.94872 2.31343,6.94743 -18.42038,-25.348 -26.30329,-38.85718 z m 55.63307,17.17752 c -7.53256,-17.97566 -14.09202,-36.53592 -19.9883,-55.338366 -3.03215,-9.669233 -27.61632,-29.704355 -7.89175,-29.486504 10.43766,0.115284 29.72895,65.6082 43.24345,99.19962 10.12223,25.15967 42.35402,68.01478 28.3124,76.57867 -5.1475,3.13944 -30.58558,-59.715 -43.6758,-90.95342 z m -5.9425,23.27292 c -11.66116,-17.52866 -22.18234,-35.83491 -31.9069,-54.50761 -5.00089,-9.602514 -38.188919,-26.381244 -13.56043,-29.513884 13.03268,-1.6577 45.35053,63.595684 66.44134,96.447484 15.79681,24.6057 61.4003,63.96322 44.96691,75.31796 -6.02429,4.16252 -45.67595,-57.28234 -65.94092,-87.74395 z"
         clip-path="url(#clipPath133)"
         transform="matrix(1,0,0,1.0521516,0,-13.604906)" /><path
         id="path119-83-1-9"
         style="fill:#faa403;fill-opacity:1;stroke:none;stroke-width:1.15405;stroke-linecap:square;stroke-miterlimit:2;stroke-dasharray:none;stroke-opacity:1;paint-order:markers stroke fill"
         d="m 20.483308,190.00913 c -4.587082,-10.94514 -7.147347,-21.81183 -9.380009,-32.61532 -2.737902,-13.24822 -0.649535,-12.51928 3.19526,-4.71635 3.37151,6.84241 10.841112,21.54345 14.183955,32.22289 3.115018,9.95161 5.387291,14.60003 5.433589,29.55751 0.01142,3.67345 -10.024945,-16.31733 -13.432795,-24.44873 z m 34.989982,29.82163 c -10.61065,-18.1838 -19.517182,-37.33922 -28.116599,-56.55605 -10.545379,-23.56542 -8.382988,-23.33969 -0.34935,-10.69378 7.044709,11.08922 22.364839,34.78984 31.792889,53.15829 8.78553,17.11663 13.55654,24.66018 22.97635,52.94872 2.31343,6.94743 -18.42038,-25.348 -26.30329,-38.85718 z m -0.106164,-27.44294 c -11.66116,-17.52866 -22.18234,-35.83491 -31.9069,-54.50761 -5.00089,-9.60251 -38.18892,-26.38124 -13.5604302,-29.51388 13.0326802,-1.6577 45.3505302,63.59568 66.4413402,96.44748 15.79681,24.6057 61.400304,63.96322 44.966914,75.31796 -6.02429,4.16252 -45.675954,-57.28234 -65.940924,-87.74395 z"
         clip-path="url(#clipPath120)"
         transform="matrix(1,0,0,1.0521516,0,-13.604906)" /></g></g><g
     id="layer17"
     style="display:none"><path
       style="baseline-shift:baseline;display:inline;overflow:visible;opacity:1;vector-effect:none;fill:#2a7fff;stroke-linecap:square;stroke-miterlimit:2;paint-order:markers fill stroke;enable-background:accumulate;stop-color:#000000;stop-opacity:1"
       d="m 69.4719,99.254292 -1.749609,5.796178 c -2.127127,14.88988 -3.893998,27.38642 -7.905885,39.02961 -4.011888,11.64319 -10.066679,20.46169 -13.673828,33.40234 -3.60715,12.94065 -4.322824,24.8485 -5.386387,41.51098 l 0.28162,6.31136 0.712917,3.61313 1.313725,-6.43773 c 1.063563,-16.66248 2.143537,-31.792 5.626953,-44.28875 3.483418,-12.49677 9.482737,-21.22649 13.625,-33.24805 4.142264,-12.02157 6.263499,-26.96754 8.390625,-41.85742 l -0.311045,-2.47739 z m -166.477759,69.362898 -0.277344,1.29492 c -1.683976,7.88809 -3.353767,15.68931 -6.490237,23.44336 -3.13647,7.75405 -7.86702,15.71283 -11.94336,27.4043 -4.07633,11.69147 -6.50448,22.76136 -9.87243,38.00576 l -0.19115,6.47315 1.54991,-1.50233 0.81694,-3.01261 c 3.36795,-15.2444 6.2056,-27.65336 10.19478,-39.09483 3.98918,-11.44149 8.6534,-19.2588 11.89844,-27.28125 3.245038,-8.02246 4.941022,-15.99668 6.624998,-23.88477 l 0.277343,-1.29297 z m 52.800781,2.48633 -0.02539,1.32226 c -0.26589,13.91495 -0.5486,27.71112 -4.371093,40.00391 -3.822496,12.29279 -11.301293,23.38603 -15.679688,33.3164 -4.378397,9.93038 -5.031707,16.96338 -6.095271,25.29462 l 0.01483,5.54347 0.880092,-1.41726 1.397713,-4.20289 c 1.063564,-8.33124 2.005592,-14.5809 6.22451,-24.14958 4.21892,-9.56868 11.806072,-20.80952 15.783203,-33.59961 3.977133,-12.79009 4.226298,-26.82333 4.492188,-40.73828 l 0.02539,-1.32226 z m -101.503902,33.80273 -0.27539,1.29297 c -1.68398,7.88809 -3.35572,15.69126 -6.49219,23.44531 -3.13647,7.75405 -7.83868,15.65036 -11.21485,24.11328 -3.37617,8.46293 -5.33529,17.30764 -7.28515,26.08203 l -0.28711,1.29102 2.58203,0.57422 0.28711,-1.29102 c 1.94986,-8.77439 3.89087,-17.47589 7.16211,-25.67578 3.27123,-8.19989 7.96394,-16.0791 11.20898,-24.10156 3.24504,-8.02246 4.94103,-15.99668 6.625,-23.88477 l 0.27735,-1.29297 z m 130.758314,-6.1035 -2.736834,8.93748 c -1.683973,7.88809 -3.353765,15.69127 -6.490234,23.44532 -3.136471,7.75405 -7.838676,15.65035 -11.214844,24.11328 -3.376169,8.46293 -5.335291,17.30764 -7.285156,26.08203 l -0.28711,1.29101 2.582032,0.57422 0.287109,-1.29101 c 1.949866,-8.77439 3.890877,-17.47589 7.162109,-25.67578 3.271234,-8.19989 7.963947,-16.07911 11.208985,-24.10157 3.245039,-8.02246 4.941026,-15.99667 6.625,-23.88476 l 0.277343,-5.59102 z"
       id="path135-6-9"
       transform="matrix(1,0,0,1.0521516,198.93327,-81.737854)"
       clip-path="url(#clipPath204)" /></g><g
     id="layer11"
     style="display:none"><g
       id="layer14"
       style="display:inline"
       clip-path="url(#clipPath5)"><path
         d="M 300.06902,-7.2990217 C 264.68871,4.4583383 245.88547,32.511604 203.04342,37.723251 170.87796,41.636113 150.59326,45.115879 126.82998,50.736513 103.86025,56.169451 56.781091,76.602573 20.473686,75.634827 13.194386,75.4408 2.530247,72.260093 -6.0161702,69.257052 V 210.72134 H 300.06902 Z"
         style="display:inline;fill:#866053;fill-opacity:1;stroke-width:1.62837;stroke-linecap:square;stroke-miterlimit:2;paint-order:markers stroke fill"
         id="path150" /><path
         d="M 300.06902,-7.527025 C 186.99014,-4.9773647 -6.0161702,-91.697637 -6.0161702,2.2799523 V 93.598719 C 2.530247,96.60176 13.194386,102.97316 20.473686,103.16718 56.781091,104.13493 109.17807,86.360715 132.1478,80.927777 c 23.76328,-5.620634 38.73016,-14.949997 70.89562,-18.862859 42.84205,-5.211647 61.64529,-33.264913 97.0256,-45.022273 z"
         style="display:inline;fill:#967661;fill-opacity:1;stroke-width:1.62837;stroke-linecap:square;stroke-miterlimit:2;paint-order:markers stroke fill"
         id="path153" /><path
         d="M -6.0161702,-21.913407 V 18.684119 C 87.947391,20.3078 186.99014,11.426802 300.06902,8.8771417 V -21.913407 Z"
         style="display:inline;fill:#ded2c2;fill-opacity:1;stroke-width:1.62837;stroke-linecap:square;stroke-miterlimit:2;paint-order:markers stroke fill"
         id="path152" /></g><g
       id="layer13"
       clip-path="url(#clipPath4)"><path
         style="display:inline;fill:#a93132;fill-opacity:1;stroke:none;stroke-width:1.81471;stroke-linecap:square;stroke-miterlimit:2;stroke-dasharray:none;stroke-opacity:1;paint-order:markers fill stroke"
         d="m 165.80492,86.475895 c 0,0 73.04158,26.532305 75.01104,14.143075 l 9.10396,-57.27017 c 0,0 -11.53429,36.630068 -18.01914,39.14411 -6.10864,2.36818 -15.21429,6.133458 -20.93276,5.39577 -11.24668,-1.450834 -27.88197,-2.033027 -32.31906,-2.600207 -3.1627,-0.404278 -12.84404,1.187422 -12.84404,1.187422 z"
         id="path146-2" /><path
         style="display:inline;fill:#a93132;fill-opacity:1;stroke:none;stroke-width:1.62837;stroke-linecap:square;stroke-miterlimit:2;stroke-dasharray:none;stroke-opacity:1;paint-order:markers fill stroke"
         d="m 72.826659,88.104863 c 1.158436,1.601155 82.159121,35.106537 87.212181,22.975067 l 7.312,-17.554756 c 0,0 -15.22708,2.304254 -21.27126,4.476116 -5.69353,2.04585 -18.92524,1.249419 -31.52588,-2.717287 -13.55601,-4.267452 -28.455175,-7.526735 -31.099923,-7.814465 -1.510995,-0.164386 -7.853971,-0.701976 -10.627118,0.635325 z"
         id="path146" /><path
         style="display:inline;fill:#a93132;fill-opacity:1;stroke:none;stroke-width:1.62837;stroke-linecap:square;stroke-miterlimit:2;stroke-dasharray:none;stroke-opacity:1;paint-order:markers fill stroke"
         d="m -13.294538,136.90458 c 0,0 72.944932,20.90757 75.51298,10.35102 l 11.433303,-46.99923 c 0,0 -28.7875,17.13141 -43.340195,22.10083 -11.879006,4.05642 -27.7428627,0.82692 -41.653664,2.51194 -9.18431,1.11249 -1.952424,12.03544 -1.952424,12.03544 z"
         id="path145" /><path
         style="display:inline;fill:none;fill-opacity:1;stroke:#484848;stroke-width:6.78487;stroke-linecap:square;stroke-miterlimit:2;stroke-dasharray:none;stroke-opacity:1;paint-order:markers fill stroke"
         d="m 246.58596,84.762897 c 0,0 -14.0976,6.735265 -21.88916,8.094885 -17.24994,3.010099 -40.14885,3.342946 -40.14885,3.342946"
         id="path147" /><path
         style="display:inline;fill:none;fill-opacity:1;stroke:#484848;stroke-width:6.78487;stroke-linecap:square;stroke-miterlimit:2;stroke-dasharray:none;stroke-opacity:1;paint-order:markers fill stroke"
         d="m 179.3706,96.0288 c 0,0 -10.1877,7.09821 -15.97309,8.82608 -12.90555,3.85439 -40.14885,2.94411 -40.14885,2.94411"
         id="path147-9" /><path
         style="display:inline;fill:none;fill-opacity:1;stroke:#484848;stroke-width:6.78487;stroke-linecap:square;stroke-miterlimit:2;stroke-dasharray:none;stroke-opacity:1;paint-order:markers fill stroke"
         d="m 77.494555,122.82264 c 0,0 -8.551761,9.18272 -13.865852,12.14524 -11.854213,6.60856 -38.676149,11.71228 -38.676149,11.71228"
         id="path147-9-2" /><path
         style="baseline-shift:baseline;display:inline;overflow:visible;opacity:1;vector-effect:none;fill:#484848;stroke-width:1.02574;stroke-linecap:square;stroke-miterlimit:2;paint-order:markers fill stroke;enable-background:accumulate;stop-color:#000000;stop-opacity:1"
         d="m 64.9375,114.90966 -1.554688,1.29876 c 0,0 -5.952437,4.89484 -8.767578,6.40538 -8.440546,4.52899 -25.977033,10.30985 -27.951172,10.30984 l -8.304557,3.22951 7.926934,0.36196 8.304558,-1.64695 c 0,0 12.441712,-3.49893 21.826972,-8.53485 3.759863,-2.01744 9.435547,-6.85542 9.435547,-6.85542 l 1.554687,-1.3008 z"
         id="path147-9-9" /></g><g
       id="layer12"
       style="display:inline"><path
         style="display:inline;fill:#ff9ee4;fill-opacity:1;stroke:none;stroke-width:1.62837;stroke-linecap:square;stroke-miterlimit:2;stroke-dasharray:none;stroke-opacity:1;paint-order:markers fill stroke"
         d="m 144.58472,105.73156 6.64727,1.39878 2.9248,-4.19636 -3.98836,-3.077326 z"
         id="path144" /><path
         style="display:inline;fill:#ff9ee4;fill-opacity:1;stroke:none;stroke-width:1.62837;stroke-linecap:square;stroke-miterlimit:2;stroke-dasharray:none;stroke-opacity:1;paint-order:markers fill stroke"
         d="m 50.009862,138.37558 5.171274,-4.61168 -1.308415,-5.01839 -4.769638,1.37665 z"
         id="path144-5" /><path
         style="display:inline;fill:#ff9ee4;fill-opacity:1;stroke:none;stroke-width:1.62837;stroke-linecap:square;stroke-miterlimit:2;stroke-dasharray:none;stroke-opacity:1;paint-order:markers fill stroke"
         d="m 37.003836,133.89762 6.413847,2.56587 6.058199,-14.65957 -4.791884,-2.02139 -6.125349,5.96935 z"
         id="path143" /></g><g
       id="layer15"
       style="display:inline"><path
         style="baseline-shift:baseline;display:inline;overflow:visible;opacity:1;vector-effect:none;fill:#2ad4ff;stroke-width:1.24759;stroke-linecap:square;stroke-miterlimit:2;paint-order:markers fill stroke;enable-background:accumulate;stop-color:#000000;stop-opacity:1"
         d="m 224.82452,59.711895 7.44407,-1.930473 c 0,0 -1.27519,2.247682 -3.1424,3.896932 -1.86722,1.64925 -5.36854,4.018923 -8.4504,5.237081 -10.04935,3.972177 -21.0659,5.057721 -31.78414,6.377761 -12.58789,1.550278 -25.90229,4.40304 -37.98236,0.607221 -2.10327,-0.66089 -5.36411,-3.86922 -5.36411,-3.86922 37.19713,-4.666894 58.45196,-4.208195 79.27934,-10.319304 z"
         id="path154" /><path
         style="baseline-shift:baseline;display:inline;overflow:visible;vector-effect:none;fill:#2ad4ff;stroke-width:0.80783;stroke-linecap:square;stroke-miterlimit:2;paint-order:markers fill stroke;enable-background:accumulate;stop-color:#000000"
         d="m 14.313629,91.569807 c -2.508249,0.140731 -7.5365341,0.02704 -7.5365341,0.02704 0,0 1.3254355,1.230418 2.0970597,1.688809 1.7494034,1.03925 3.6379964,1.961177 5.6364754,2.343979 6.354044,1.217096 12.973998,0.368105 19.406319,-0.302655 7.554349,-0.787731 13.579344,-3.258383 19.996422,-5.934795 1.704949,-0.711094 4.858758,-2.665518 4.858758,-2.665518 -22.334614,2.269018 -29.574736,4.008049 -44.458499,4.843135 z"
         id="path154-9" /></g></g><g
     id="g101"
     style="display:none;fill:#e3a1f1;fill-opacity:1"><path
       id="path264"
       style="display:inline;fill:none;fill-opacity:1;stroke:#111111;stroke-width:1.5875;stroke-linecap:square;stroke-miterlimit:2;stroke-dasharray:none;stroke-opacity:0.5;paint-order:markers stroke fill"
       transform="matrix(1,0,0,1.0521516,224.01473,-231.20786)"
       d="M 37.942209,186.64235 C 30.197901,241.30665 18.02958,295.34357 1.5953452,348.05102 -11.004997,388.46251 -26.11066,428.09267 -43.606088,466.63832 m 11.465869,-281.17804 c -9.63398,55.10136 -23.362102,109.48644 -41.033832,162.55888 -11.199453,33.63464 -23.981011,66.74243 -38.288269,99.17728 m -8.28353,-281.42156 c -10.32271,60.35993 -25.3134,119.92097 -44.7941,177.97596 -11.27714,33.60735 -24.05689,66.71044 -38.28827,99.17728"
       clip-path="url(#clipPath281)" /><path
       id="path280"
       style="display:inline;fill:none;fill-opacity:1;stroke:#111111;stroke-width:1.5875;stroke-linecap:square;stroke-miterlimit:2;stroke-dasharray:1.5875, 4.7625;stroke-dashoffset:0;stroke-opacity:0.5;paint-order:markers stroke fill"
       transform="matrix(1,0,0,1.0521516,224.01473,-231.20786)"
       d="M 37.942209,186.64235 C 30.197901,241.30665 18.02958,295.34357 1.5953452,348.05102 -11.004997,388.46251 -26.11066,428.09267 -43.606088,466.63832 m 11.465869,-281.17804 c -9.63398,55.10136 -23.362102,109.48644 -41.033832,162.55888 -11.199453,33.63464 -23.981011,66.74243 -38.288269,99.17728 m -8.28353,-281.42156 c -10.32271,60.35993 -25.3134,119.92097 -44.7941,177.97596 -11.27714,33.60735 -24.05689,66.71044 -38.28827,99.17728"
       clip-path="url(#clipPath282)" /></g><rect
     style="display:none;fill:none;fill-opacity:1;stroke:none;stroke-width:1.62837;stroke-linecap:square;stroke-miterlimit:2;stroke-dasharray:none;stroke-opacity:1;paint-order:markers stroke fill"
     id="rect204"
     width="297.04608"
     height="210.06013"
     x="-0.03480003"
     y="-0.036959842" /><path
     d="M -0.03462321,-0.03720703 V 132.25704 c 1.00923713,0.29265 2.06977971,0.6256 3.19050291,1.00563 7.8820013,2.67276 18.7314803,7.67133 28.0582353,9.33431 9.304769,1.65905 17.093072,-0.002 24.877552,-1.67122 1.142423,-3.47998 2.27007,-6.96524 3.383256,-10.45569 4.506617,-14.13071 8.772799,-28.34606 12.796635,-42.637188 4.812965,0.340727 9.734505,0.752371 19.844783,4.563545 10.326219,3.892666 26.064109,11.331253 37.866419,14.708663 11.80231,3.37742 19.66767,2.6937 27.53321,2.0097 l 1.16892,0.0863 c 2.22382,-7.59957 4.37524,-15.222408 6.45387,-22.867342 4.82874,0.341115 9.70739,0.721378 17.45216,3.3476 7.882,2.672762 18.73148,7.671347 28.05824,9.334314 9.32675,1.662958 17.12946,-0.01001 24.93233,-1.683102 l 0.49919,-0.08113 c 6.56398,-25.37121 12.24651,-50.994939 17.03307,-76.802547 l 0.12557,0.0067 c 11.9152,0.812716 23.83026,1.625173 35.16892,4.297929 2.8791,0.678668 5.72105,1.47721 8.60309,2.325956 V -0.03720703 Z"
     style="display:none;fill:none;fill-opacity:1;stroke:#9a35c4;stroke-width:1.62837;stroke-linecap:square;stroke-miterlimit:2;stroke-opacity:1;paint-order:markers stroke fill"
     id="path215" /><path
     id="path238"
     style="display:none;fill:none;fill-opacity:1;stroke:#9a35c4;stroke-width:1.62837;stroke-linecap:square;stroke-miterlimit:2;stroke-dasharray:none;stroke-opacity:1;paint-order:markers fill stroke"
     d="m 253.11375,20.449016 c -4.78656,25.807614 -10.46909,51.431178 -17.03307,76.802383 l -0.49919,0.08101 c -7.80287,1.6731 -15.60558,3.346311 -24.93233,1.683338 -9.32676,-1.662958 -20.17624,-6.66173 -28.05824,-9.33449 -7.74477,-2.626223 -12.62342,-3.006533 -17.45216,-3.347651 -2.07863,7.644944 -4.23005,15.267974 -6.45387,22.867544 l -1.16892,-0.0865 c -7.86554,0.684 -15.7309,1.36786 -27.53321,-2.00956 C 118.18045,103.7277 102.44256,96.289206 92.11634,92.39654 82.00606,88.585373 77.08452,88.173371 72.27156,87.832643 68.24772,102.12378 63.98154,116.33947 59.47492,130.47018 c -1.11318,3.49045 -2.24083,6.97565 -3.38325,10.45563 -7.78448,1.66913 -15.57279,3.33043 -24.87755,1.67138 -9.32676,-1.66298 -20.17624,-6.66173 -28.05824,-9.33449 -3.57594,-1.21258 -6.54097,-1.94626 -9.17205,-2.41844 v 79.87709 h 36.95795 93.17519 76.07546 99.87658 V 27.990331 c -3.94626,-1.183007 -7.76954,-2.319478 -11.66077,-3.236723 -11.33866,-2.672761 -23.25372,-3.485352 -35.16892,-4.298068 z"
     clip-path="url(#clipPath203)" /></svg>
