<?xml version="1.0" encoding="UTF-8" standalone="no"?>
<!-- Created with Inkscape (http://www.inkscape.org/) -->

<svg
   width="180.55803mm"
   height="100.20179mm"
   viewBox="0 0 180.55803 100.20179"
   version="1.1"
   id="svg1"
   xmlns="http://www.w3.org/2000/svg"
   xmlns:svg="http://www.w3.org/2000/svg">
  <defs
     id="defs1">
    <clipPath
       clipPathUnits="userSpaceOnUse"
       id="clipPath49">
      <path
         d="M 20.555334,49.430575 C 12.124267,44.958746 7.1105212,41.591039 0,40.000142 V 100.0001 c 0,0 13.958691,-31.732634 19.696472,-48.070969 0.279411,-0.795624 0.566137,-1.630249 0.858862,-2.498556 z"
         style="display:inline;fill:none;fill-opacity:1;stroke:#036e04;stroke-width:1;stroke-linecap:square;stroke-miterlimit:2;stroke-opacity:1;paint-order:markers stroke fill"
         id="path49" />
    </clipPath>
    <clipPath
       clipPathUnits="userSpaceOnUse"
       id="clipPath51">
      <path
         d="M 20.555334,49.430575 C 12.124267,44.958746 7.1105212,41.591039 0,40.000142 V 100.0001 c 0,0 13.958691,-31.732634 19.696472,-48.070969 0.279411,-0.795624 0.566137,-1.630249 0.858862,-2.498556 z"
         style="display:inline;fill:none;fill-opacity:1;stroke:#036e04;stroke-width:1;stroke-linecap:square;stroke-miterlimit:2;stroke-opacity:1;paint-order:markers stroke fill"
         id="path51" />
    </clipPath>
    <clipPath
       clipPathUnits="userSpaceOnUse"
       id="clipPath53">
      <path
         d="m 20.555334,49.430575 c -0.292725,0.868307 -0.579451,1.702932 -0.858862,2.498556 C 13.958691,68.267466 0,100.0001 0,100.0001 h 46.0375 c 0,0 12.869397,-29.256269 18.97352,-46.049389 C 53.810948,46.566429 38.690661,32.59319 27.167851,28.578101 c -2.193487,7.456858 -4.38699,14.387457 -6.580477,20.869526 -0.01072,-0.0057 -0.02134,-0.01138 -0.03204,-0.01704 z"
         style="display:inline;fill:none;fill-opacity:1;stroke:#036e04;stroke-width:1;stroke-linecap:square;stroke-miterlimit:2;stroke-opacity:1;paint-order:markers stroke fill"
         id="path54" />
    </clipPath>
    <clipPath
       clipPathUnits="userSpaceOnUse"
       id="clipPath54">
      <path
         d="m 20.555334,49.430575 c -0.292725,0.868307 -0.579451,1.702932 -0.858862,2.498556 C 13.958691,68.267466 0,100.0001 0,100.0001 h 46.0375 c 0,0 12.869397,-29.256269 18.97352,-46.049389 C 53.810948,46.566429 38.690661,32.59319 27.167851,28.578101 c -2.193487,7.456858 -4.38699,14.387457 -6.580477,20.869526 -0.01072,-0.0057 -0.02134,-0.01138 -0.03204,-0.01704 z"
         style="display:inline;fill:none;fill-opacity:1;stroke:#036e04;stroke-width:1;stroke-linecap:square;stroke-miterlimit:2;stroke-opacity:1;paint-order:markers stroke fill"
         id="path56" />
    </clipPath>
    <clipPath
       clipPathUnits="userSpaceOnUse"
       id="clipPath58">
      <path
         d="M 65.01102,53.950711 C 58.906897,70.743831 46.0375,100.0001 46.0375,100.0001 H 88.320708 C 88.324608,99.9913 96.836884,80.640158 103.29809,64.382634 91.049237,56.390818 82.253344,42.453523 70.540914,37.436475 68.743163,43.748452 66.945711,49.143854 65.14796,54.04063 65.10239,54.01072 65.05672,53.98084 65.01102,53.950711 Z"
         style="display:inline;fill:none;fill-opacity:1;stroke:#036e04;stroke-width:1;stroke-linecap:square;stroke-miterlimit:2;stroke-opacity:1;paint-order:markers stroke fill"
         id="path59" />
    </clipPath>
    <clipPath
       clipPathUnits="userSpaceOnUse"
       id="clipPath59">
      <path
         d="M 65.01102,53.950711 C 58.906897,70.743831 46.0375,100.0001 46.0375,100.0001 H 88.320708 C 88.324608,99.9913 96.836884,80.640158 103.29809,64.382634 91.049237,56.390818 82.253344,42.453523 70.540914,37.436475 68.743163,43.748452 66.945711,49.143854 65.14796,54.04063 65.10239,54.01072 65.05672,53.98084 65.01102,53.950711 Z"
         style="display:inline;fill:none;fill-opacity:1;stroke:#036e04;stroke-width:1;stroke-linecap:square;stroke-miterlimit:2;stroke-opacity:1;paint-order:markers stroke fill"
         id="path60" />
    </clipPath>
    <clipPath
       clipPathUnits="userSpaceOnUse"
       id="clipPath62">
      <path
         d="M 103.29809,64.382634 C 96.836884,80.640158 88.324576,99.991302 88.320708,100.0001 h 45.508332 c 0.003,-0.0058 3.78654,-8.543759 8.2212,-19.023646 C 129.10147,71.09319 125.00486,57.615915 109.29875,48.272507 l -0.3793,1.029909 c -0.30767,0.914254 -0.60918,1.792145 -0.90227,2.626715 -1.01744,2.897163 -2.2934,6.278033 -3.70417,9.880533 l -0.96015,2.608109 c -0.0182,-0.01185 -0.0366,-0.02326 -0.0548,-0.03514 z"
         style="display:inline;fill:none;fill-opacity:1;stroke:#036e04;stroke-width:1;stroke-linecap:square;stroke-miterlimit:2;stroke-opacity:1;paint-order:markers stroke fill"
         id="path63" />
    </clipPath>
    <clipPath
       clipPathUnits="userSpaceOnUse"
       id="clipPath63">
      <path
         d="M 103.29809,64.382634 C 96.836884,80.640158 88.324576,99.991302 88.320708,100.0001 h 45.508332 c 0.003,-0.0058 3.78654,-8.543759 8.2212,-19.023646 C 129.10147,71.09319 125.00486,57.615915 109.29875,48.272507 l -0.3793,1.029909 c -0.30767,0.914254 -0.60918,1.792145 -0.90227,2.626715 -1.01744,2.897163 -2.2934,6.278033 -3.70417,9.880533 l -0.96015,2.608109 c -0.0182,-0.01185 -0.0366,-0.02326 -0.0548,-0.03514 z"
         style="display:inline;fill:none;fill-opacity:1;stroke:#036e04;stroke-width:1;stroke-linecap:square;stroke-miterlimit:2;stroke-opacity:1;paint-order:markers stroke fill"
         id="path64" />
    </clipPath>
    <clipPath
       clipPathUnits="userSpaceOnUse"
       id="clipPath66">
      <path
         style="display:inline;fill:none;fill-opacity:1;stroke:#036e04;stroke-width:1.36227;stroke-linecap:square;stroke-miterlimit:2;stroke-dasharray:none;stroke-dashoffset:0;stroke-opacity:1;paint-order:markers stroke fill"
         d="m -80.058681,217.89755 c -15.66906,-9.77483 -36.903709,-28.46233 -53.070649,-33.81643 -3.06504,9.90327 -6.13008,19.10753 -9.19511,27.7162 -11.80815,-5.95018 -18.81918,-10.43142 -28.76758,-12.54693 v 79.68448 H 80.428468 v -115.5425 c -6.375847,-0.20379 -17.806153,1.78838 -21.458274,2.99662 C 47.199483,208.19612 41.151016,223.44451 27.504605,253.74618 9.3280297,240.61364 3.6238642,222.6694 -18.365161,210.23673 l -8.30846,21.4426 c -17.155586,-10.60595 -29.458353,-29.16061 -45.848876,-35.83353 -2.512063,8.38278 -5.024122,15.54846 -7.536184,22.05175 z"
         id="path67" />
    </clipPath>
    <clipPath
       clipPathUnits="userSpaceOnUse"
       id="clipPath73">
      <path
         d="m 142.05024,80.976454 c -4.43466,10.479887 -8.21861,19.017803 -8.2212,19.023646 h 46.17083 V 13.00024 c -4.54505,-0.152848 -12.6791,1.334569 -15.32568,2.245341 -0.24101,0.866122 -0.48901,1.754403 -0.74311,2.66082 -7.96321,29.494719 -12.31893,40.963113 -21.80591,63.127412 -0.025,-0.01902 -0.05,-0.0383 -0.0749,-0.05736 z"
         style="display:inline;fill:none;fill-opacity:1;stroke:#036e04;stroke-width:1;stroke-linecap:square;stroke-miterlimit:2;stroke-opacity:1;paint-order:markers stroke fill"
         id="path74" />
    </clipPath>
  </defs>
  <g
     id="g8"
     transform="translate(-47.69615)"
     style="display:none">
    <rect
       style="fill:#180d16;fill-opacity:1;stroke:none;stroke-width:0.713901;stroke-linecap:square;stroke-miterlimit:2;paint-order:markers stroke fill"
       id="rect8"
       width="10"
       height="6"
       x="194.76498"
       y="10.922445" />
    <rect
       style="fill:#30203e;fill-opacity:1;stroke:none;stroke-width:0.713901;stroke-linecap:square;stroke-miterlimit:2;paint-order:markers stroke fill"
       id="rect8-4"
       width="10"
       height="6"
       x="194.76498"
       y="19.912333" />
    <rect
       style="fill:#413f80;fill-opacity:1;stroke:none;stroke-width:0.713901;stroke-linecap:square;stroke-miterlimit:2;paint-order:markers stroke fill"
       id="rect8-8"
       width="10"
       height="6"
       x="194.76498"
       y="28.902222" />
    <rect
       style="fill:#357ba3;fill-opacity:1;stroke:none;stroke-width:0.713901;stroke-linecap:square;stroke-miterlimit:2;paint-order:markers stroke fill"
       id="rect8-1"
       width="10"
       height="6"
       x="194.76498"
       y="37.892109" />
    <rect
       style="fill:#3eb4ad;fill-opacity:1;stroke:none;stroke-width:0.713901;stroke-linecap:square;stroke-miterlimit:2;paint-order:markers stroke fill"
       id="rect8-2"
       width="10"
       height="6"
       x="194.76498"
       y="46.882" />
    <rect
       style="fill:#85d9b1;fill-opacity:1;stroke:none;stroke-width:0.713901;stroke-linecap:square;stroke-miterlimit:2;paint-order:markers stroke fill"
       id="rect8-23"
       width="10"
       height="6"
       x="194.76498"
       y="55.871887" />
    <rect
       style="fill:#dce3ec;fill-opacity:1;stroke:none;stroke-width:0.713901;stroke-linecap:square;stroke-miterlimit:2;paint-order:markers stroke fill"
       id="rect8-85"
       width="10"
       height="6"
       x="194.76498"
       y="64.861771" />
    <rect
       style="fill:#db72fa;fill-opacity:1;stroke:#9a35c4;stroke-width:0.713901;stroke-linecap:square;stroke-miterlimit:2;stroke-opacity:1;paint-order:markers stroke fill"
       id="rect13"
       width="10"
       height="6"
       x="209.99405"
       y="10.922445" />
  </g>
  <rect
     style="fill:#dce3ec;fill-opacity:1;stroke:none;stroke-width:1.93371;stroke-linecap:square;stroke-miterlimit:2;paint-order:markers stroke fill"
     id="rect1"
     width="180"
     height="100"
     x="0.4580189"
     y="2.3314039e-06"
     ry="0" />
  <g
     id="layer6"
     style="display:none"
     transform="translate(0.45801889)">
    <path
       d="m 142.05024,80.976453 c -4.43466,10.479887 -8.21861,19.017803 -8.2212,19.023647 h 46.17083 V 13.00024 c -4.54505,-0.152848 -12.6791,1.334569 -15.32568,2.245341 -0.24101,0.866122 -0.48901,1.754403 -0.74311,2.66082 -7.96321,29.49472 -12.31893,40.963113 -21.80591,63.127412 -0.025,-0.01903 -0.05,-0.0383 -0.0749,-0.05736 z"
       style="display:inline;fill:none;fill-opacity:1;stroke:#036e04;stroke-linecap:square;stroke-miterlimit:2;stroke-opacity:1;paint-order:markers stroke fill"
       id="path37" />
    <path
       d="M 103.29809,64.382633 C 96.836883,80.640157 88.324577,99.991301 88.320707,100.0001 h 45.508333 c 0.003,-0.0058 3.78654,-8.54376 8.2212,-19.023647 -12.94877,-9.883262 -17.04538,-23.360538 -32.75149,-32.703947 l -0.3793,1.029911 c -0.30767,0.914254 -0.60918,1.792144 -0.90227,2.626713 -1.01744,2.897163 -2.2934,6.278035 -3.70417,9.880534 l -0.96015,2.608109 c -0.0182,-0.01185 -0.0366,-0.02326 -0.0548,-0.03514 z"
       style="display:inline;fill:none;fill-opacity:1;stroke:#036e04;stroke-linecap:square;stroke-miterlimit:2;stroke-opacity:1;paint-order:markers stroke fill"
       id="path34" />
    <path
       d="M 65.011019,53.950712 C 58.906896,70.743831 46.0375,100.0001 46.0375,100.0001 H 88.320707 C 88.324607,99.9913 96.836883,80.640157 103.29809,64.382633 91.049236,56.390818 82.253343,42.453524 70.540914,37.436475 c -1.79775,6.311977 -3.595203,11.70738 -5.392953,16.604154 -0.04557,-0.02991 -0.09124,-0.05979 -0.136942,-0.08992 z"
       style="display:inline;fill:none;fill-opacity:1;stroke:#036e04;stroke-linecap:square;stroke-miterlimit:2;stroke-opacity:1;paint-order:markers stroke fill"
       id="path32" />
    <path
       d="M 20.555334,49.430575 C 12.124267,44.958746 7.1105212,41.59104 0,40.000142 V 100.0001 c 0,0 13.958691,-31.732633 19.696472,-48.07097 0.279411,-0.795622 0.566137,-1.630249 0.858862,-2.498555 z"
       style="display:inline;fill:none;fill-opacity:1;stroke:#036e04;stroke-linecap:square;stroke-miterlimit:2;stroke-opacity:1;paint-order:markers stroke fill"
       id="path31" />
    <path
       d="M 20.555334,49.430575 C 20.262609,50.298881 19.975883,51.133508 19.696472,51.92913 13.958691,68.267467 0,100.0001 0,100.0001 h 46.0375 c 0,0 12.869396,-29.256269 18.973519,-46.049388 C 53.810949,46.566428 38.690662,32.59319 27.167851,28.578101 c -2.193487,7.456859 -4.38699,14.387458 -6.580477,20.869527 -0.01072,-0.0057 -0.02134,-0.01138 -0.03204,-0.01705 z"
       style="display:inline;fill:none;fill-opacity:1;stroke:#036e04;stroke-linecap:square;stroke-miterlimit:2;stroke-opacity:1;paint-order:markers stroke fill"
       id="path30" />
  </g>
  <g
     id="layer9"
     style="display:none"
     transform="translate(0.45801889)">
    <rect
       style="fill:#866053;fill-opacity:1;stroke:none;stroke-width:1.93371;stroke-linecap:square;stroke-miterlimit:2;paint-order:markers stroke fill"
       id="rect67"
       width="180"
       height="100"
       x="0"
       y="0"
       ry="0" />
    <path
       style="display:inline;fill:#a93132;fill-opacity:1;stroke:#180d16;stroke-width:0.2;stroke-linecap:butt;stroke-linejoin:round;stroke-miterlimit:2;stroke-dasharray:none;stroke-dashoffset:0;stroke-opacity:1;paint-order:markers stroke fill"
       d="M 0,56.194791 V 38.5875 l 24.558731,2.89293 3.879009,-11.827558 c 10.722509,1.896547 29.001535,14.153103 40.112392,16.781586 l 1.782295,-8.214922 1.110049,-4.15831 c 12.340523,7.099956 23.472229,17.891563 37.555534,20.759057 L 105.859,68.30349 Z"
       id="path75" />
    <path
       id="rect68"
       style="fill:#967661;fill-opacity:1;stroke:#180d16;stroke-width:0.2;stroke-linecap:butt;stroke-linejoin:round;stroke-miterlimit:2;stroke-dasharray:none;stroke-opacity:1;paint-order:markers stroke fill"
       d="M 0,0 H 180 L 168.56536,37.571629 C 163.91833,40.259668 94.936695,24.898505 46.061853,26.326696 37.755648,26.569414 17.15921,36.310193 0,27.89 Z" />
    <path
       id="path71"
       style="fill:#ded2c2;fill-opacity:1;stroke:#180d16;stroke-width:0.2;stroke-linecap:butt;stroke-linejoin:round;stroke-miterlimit:2;stroke-dasharray:none;stroke-opacity:1;paint-order:markers stroke fill"
       d="M 0,0 H 180 V 19.0375 C 121.62419,15.493414 69.863575,6.3634109 0,7.9249997 Z" />
    <path
       style="display:inline;fill:#484848;fill-opacity:1;stroke:#180d16;stroke-width:0.2;stroke-linecap:square;stroke-linejoin:round;stroke-miterlimit:2;stroke-dasharray:none;stroke-dashoffset:0;stroke-opacity:1;paint-order:markers stroke fill"
       d="M 147.40225,70.977802 119.621,58.542385 106.54993,57.884779 85.962022,50.570475 66.883716,51.142958 51.190803,43.666273 7.8186856,42.016542 c 3.7137334,1.885784 11.9150474,3.191549 17.5278964,4.071179 -3.076213,0.655425 -14.9941,-1.496703 -18.2764272,-1.377235 16.1931002,3.899372 31.7239112,6.694928 47.5766312,10.027 l 32.436899,-2.688724 17.257575,9.101088 38.1662,23.057118 z"
       id="path76" />
    <path
       style="display:inline;fill:#db72fa;fill-opacity:1;stroke:#180d16;stroke-width:0.2;stroke-linecap:butt;stroke-linejoin:round;stroke-miterlimit:2;stroke-dasharray:none;stroke-dashoffset:0;stroke-opacity:1;paint-order:markers stroke fill"
       d="m 15.86094,44.68761 -0.04544,0.590235 2.206437,1.32272 0.50814,-0.0335 c 0.89409,-1.084828 1.83999,-2.307821 2.99636,-4.092062 l -0.28266,-0.354726 c -1.49649,-0.119834 -3.07449,-0.297894 -3.977406,0.0063 z m 81.123496,13.132806 -0.03035,0.395942 2.019112,1.461511 0.29722,0.211738 c 1.365732,-0.632379 3.206502,-2.660686 4.354652,-3.417395 l 0.10627,-0.281957 -0.0621,-2.424698 -0.31572,-0.130835 c -1.81084,0.23815 -4.449762,2.642809 -6.369054,4.185694 z"
       id="path77-5" />
    <path
       style="baseline-shift:baseline;display:inline;overflow:visible;fill:#2ad4ff;stroke:#180d16;stroke-width:0.2;stroke-linecap:butt;stroke-linejoin:round;stroke-miterlimit:2;stroke-dasharray:none;stroke-opacity:1;paint-order:markers stroke fill;enable-background:accumulate;stop-color:#000000"
       d="m 101.17617,35.840737 c 0,0 6.88436,2.610466 9.16134,3.288871 2.64696,0.788636 11.13867,2.225034 17.60418,2.550015 10.51254,0.528399 17.7717,-2.670857 17.7717,-2.670857 z M 42.041795,32.864175 c 0,0 8.986535,2.598165 13.867084,2.663886 10.524857,0.141726 12.744617,-1.149503 12.744617,-1.149503 z"
       id="path154-9" />
  </g>
  <g
     id="layer5"
     style="display:inline"
     transform="translate(0.45801889)">
    <path
       style="display:inline;fill:#fdc1cb;fill-opacity:1;stroke:#180d16;stroke-width:0.2;stroke-linecap:butt;stroke-linejoin:round;stroke-miterlimit:2;stroke-dasharray:none;stroke-dashoffset:0;stroke-opacity:1;paint-order:markers stroke fill"
       d="M 65.147778,54.040745 C 53.934254,46.680598 38.737732,32.609476 27.167903,28.578003 24.974416,36.034862 22.780929,42.965394 20.587442,49.447463 12.136974,44.967151 7.1195483,41.592916 0,39.999999 V 99.999997 H 180 V 13 c -4.56286,-0.153447 -12.74293,1.346597 -15.35656,2.256364 -8.42368,31.479503 -12.75225,42.961077 -22.51827,65.777311 -13.00802,-9.888402 -17.09019,-23.39987 -32.82658,-32.761294 l -5.94593,16.14563 C 91.075308,56.43205 82.270865,42.460958 70.541027,37.436452 c -1.79775,6.311977 -3.595499,11.707519 -5.393249,16.604293 z"
       id="path19" />
    <path
       style="display:inline;fill:#96b589;fill-opacity:1;stroke:#180d16;stroke-width:0.2;stroke-linecap:square;stroke-miterlimit:2;stroke-dasharray:none;stroke-dashoffset:0;stroke-opacity:1;paint-order:markers stroke fill"
       d="M 133.87917,99.999997 H 180 V 47.925 c -4.56286,-0.153447 -26.46906,4.373031 -26.46906,4.373031 l -11.40577,28.735644 z"
       id="path18" />
    <g
       id="g47"
       style="display:none">
      <path
         style="display:inline;fill:#fdc1cb;fill-opacity:1;stroke:#037f05;stroke-width:1;stroke-linecap:butt;stroke-linejoin:round;stroke-miterlimit:2;stroke-dasharray:none;stroke-dashoffset:0;stroke-opacity:1;paint-order:markers stroke fill"
         d="M 0.04383064,58.911045 47.047125,54.774753"
         id="path41"
         clip-path="url(#clipPath49)" />
      <path
         style="display:inline;fill:#fdc1cb;fill-opacity:1;stroke:#037f05;stroke-width:1;stroke-linecap:butt;stroke-linejoin:round;stroke-miterlimit:2;stroke-dasharray:none;stroke-dashoffset:0;stroke-opacity:1;paint-order:markers stroke fill"
         d="m 100.1535,72.66938 47.00329,-4.136292 m -48.85538,7.575876 47.00329,-4.136292 m -41.97621,-6.447041 47.00329,-4.136292"
         id="path38"
         clip-path="url(#clipPath62)" />
      <path
         style="display:inline;fill:#fdc1cb;fill-opacity:1;stroke:#037f05;stroke-width:1;stroke-linecap:butt;stroke-linejoin:round;stroke-miterlimit:2;stroke-dasharray:none;stroke-dashoffset:0;stroke-opacity:1;paint-order:markers stroke fill"
         d="M 67.080576,48.592296 114.08387,44.456004 M 65.228493,53.883963 112.23179,49.747671 M 58.349326,71.346463 105.35262,67.210171 M 52.528493,84.575629 99.53179,80.439337"
         id="path39"
         clip-path="url(#clipPath59)" />
      <path
         style="display:inline;fill:#fdc1cb;fill-opacity:1;stroke:#037f05;stroke-width:1;stroke-linecap:butt;stroke-linejoin:round;stroke-miterlimit:2;stroke-dasharray:none;stroke-dashoffset:0;stroke-opacity:1;paint-order:markers stroke fill"
         d="M 16.545159,61.292295 63.548452,57.156003 M 9.1368258,79.548545 56.140119,75.412253 M 5.9618258,86.692296 52.965119,82.556004 M 21.043076,48.592296 68.046373,44.456004"
         id="path40"
         clip-path="url(#clipPath53)" />
    </g>
    <g
       id="layer7"
       style="display:none">
      <path
         style="display:inline;fill:#faa403;fill-opacity:1;stroke:#180d16;stroke-width:0.2;stroke-linecap:square;stroke-linejoin:round;stroke-miterlimit:2;stroke-dasharray:none;stroke-dashoffset:0;stroke-opacity:1;paint-order:markers stroke fill"
         d="M 15.621083,80.232538 11.832139,77.905997 C 8.1624101,71.574238 5.4789264,63.269989 2.6589076,55.23881 L 10.170321,67.669203 C 8.1609053,58.597021 4.9152374,52.310992 1.5288719,41.146599 8.7353107,50.56897 10.575229,57.691404 14.424574,65.675021 l 2.459489,5.849597 C 16.21053,64.16208 13.743268,55.155289 10.967995,45.866156 15.740728,55.879811 21.579246,78.492869 21.579246,78.492869 Z"
         id="path47"
         clip-path="url(#clipPath51)" />
      <path
         style="display:inline;fill:#faa403;fill-opacity:1;stroke:#180d16;stroke-width:0.2;stroke-linecap:square;stroke-linejoin:round;stroke-miterlimit:2;stroke-dasharray:none;stroke-dashoffset:0;stroke-opacity:1;paint-order:markers stroke fill"
         d="M 42.431243,108.49174 C 34.06683,92.998208 25.340026,70.39852 18.551752,54.679829 l 10.808326,19.81244 -11.478923,-29.623201 -1.329454,-4.985451 4.387198,5.583705 11.366831,25.857877 3.190688,9.705015 6.514324,20.673006 -7.505093,-17.384151 c 4.88313,9.738505 8.981076,18.888121 7.925594,24.172671 z M 38.800856,60.745868 34.014822,54.563911 C 30.345093,48.232152 28.060445,42.121502 25.240426,34.090323 l 7.511414,12.430393 c -2.009416,-9.072182 -5.255084,-15.358211 -8.641449,-26.522604 7.206438,9.422371 9.976975,18.206622 13.82632,26.190239 8.213515,18.464691 11.787993,34.486874 14.351809,48.158512 z M 57.132731,75.17416 51.549023,66.399767 C 47.879294,60.068008 41.483799,45.211726 38.66378,37.180546 l 14.214697,24.23377 C 50.869061,52.342133 45.429794,45.45785 42.043429,34.293457 c 7.206438,9.422371 9.046357,16.544805 12.895703,24.528423 l 2.459489,5.849597 c -0.673533,-7.362538 -3.140795,-16.36933 -5.916069,-25.658463 4.772734,10.013655 10.611252,32.626714 10.611252,32.626714 z m -32.48643,28.17616 -5.450762,-12.563332 c 0,0 -5.255084,-15.358212 -8.641449,-26.522605 7.206438,9.422371 6.786286,12.091135 10.635631,20.074753 4.202185,17.520364 2.304387,12.674125 3.45658,19.011184 z"
         id="path48"
         clip-path="url(#clipPath54)" />
      <path
         style="display:inline;fill:#faa403;fill-opacity:1;stroke:#180d16;stroke-width:0.2;stroke-linecap:square;stroke-linejoin:round;stroke-miterlimit:2;stroke-dasharray:none;stroke-dashoffset:0;stroke-opacity:1;paint-order:markers stroke fill"
         d="M 88.62888,110.67784 C 84.801115,97.757996 81.096585,85.794949 76.655798,75.594232 75.616722,73.207422 74.537337,70.917097 73.406633,68.733576 l -9.024597,-16.884065 -1.329454,-4.985451 4.387198,5.583705 14.541831,25.857877 3.190688,9.705015 6.514324,20.673003 z M 88.476737,71.049946 83.690703,61.544354 C 80.020974,55.212595 73.482074,37.735114 70.662055,29.703935 l 15.754028,29.38093 c -2.009416,-9.072182 -9.243446,-20.941917 -12.629811,-32.10631 7.206438,9.422371 10.84112,20.599639 14.690465,28.583256 4.99248,19.827171 8.965311,28.913836 14.333723,45.389469 z M 104.4156,78.299189 C 100.74587,71.96743 93.276347,58.013002 90.456328,49.981822 c 0,0 8.713997,11.160518 12.563342,19.144136 z M 93.045048,97.840638 87.594286,85.277309 c 1.233084,-0.09485 -7.177497,-16.570468 -11.63272,-27.652641 7.206438,9.422371 9.777557,13.221171 13.626902,21.204789 4.202185,17.520361 2.304387,12.674121 3.45658,19.011181 z m -6.020037,5.248742 C 85.978149,100.52633 79.220429,95.049489 75.743462,88.938632 73.115771,84.320399 69.941135,73.414521 69.476213,68.789466 c 0,0 -3.066719,-14.782756 -1.281384,-11.560247 1.646489,2.971893 5.918604,22.063088 8.336751,25.956052 3.227167,5.195402 7.395493,11.868726 8.898083,14.985126 z M 66.183963,95.096756 C 61.441379,90.144381 54.642179,79.268991 53.221782,69.438297 c 0,0 5.390362,6.640375 9.239707,14.623993 z"
         id="path48-3"
         clip-path="url(#clipPath58)" />
      <path
         style="display:inline;fill:#faa403;fill-opacity:1;stroke:#180d16;stroke-width:0.2;stroke-linecap:square;stroke-linejoin:round;stroke-miterlimit:2;stroke-dasharray:none;stroke-dashoffset:0;stroke-opacity:1;paint-order:markers stroke fill"
         d="m 127.9452,102.59901 -6.84668,-15.754022 c 0,0 -13.63064,-24.46497 -17.01701,-35.629363 7.20644,9.422371 15.56068,26.183346 19.41002,34.166963 l 7.04611,16.751122 c -0.67353,-7.362541 -27.04863,-67.277772 -29.82391,-76.566905 5.4045,9.571429 35.88639,79.190135 34.12889,80.420385 z"
         id="path47-6"
         clip-path="url(#clipPath63)" />
      <path
         style="display:inline;fill:#faa403;fill-opacity:1;stroke:#180d16;stroke-width:0.2;stroke-linecap:square;stroke-linejoin:round;stroke-miterlimit:2;stroke-dasharray:none;stroke-dashoffset:0;stroke-opacity:1;paint-order:markers stroke fill"
         d="m 183.52375,32.719428 c -5.56144,-0.191774 -12.85081,-4.661836 -22.67158,-6.067148 l -1.24748,-1.099861 c 6.59089,-0.759797 17.19584,3.073244 17.42703,2.313446 l -19.63101,-4.548018 c 1.91114,-0.925398 25.39764,3.228197 25.39764,3.228197 z"
         id="path72"
         clip-path="url(#clipPath73)" />
    </g>
  </g>
  <g
     id="layer8"
     style="display:inline"
     transform="translate(0.45801889)">
    <path
       style="baseline-shift:baseline;display:none;overflow:visible;fill:#2a7fff;stroke:#180d16;stroke-width:0.272453;stroke-linecap:square;stroke-linejoin:round;stroke-miterlimit:2;stroke-dasharray:none;stroke-opacity:1;paint-order:markers stroke fill;enable-background:accumulate;stop-color:#000000"
       d="m -96.266435,172.83383 -0.277344,1.29492 c -1.683976,7.88809 -3.353767,15.68931 -6.490241,23.44336 -3.13647,7.75405 -7.86702,15.71283 -11.94336,27.4043 -4.07633,11.69147 -6.50448,22.76136 -9.87243,38.00576 l -0.19115,6.47315 1.54991,-1.50233 0.81694,-3.01261 c 3.36795,-15.2444 6.2056,-27.65336 10.19478,-39.09483 3.98918,-11.44149 8.6534,-19.2588 11.89844,-27.28125 3.245042,-8.02246 4.941026,-15.99668 6.625002,-23.88477 l 0.277343,-1.29297 z m 25.442105,3.1891 -0.02539,1.32226 c -0.26589,13.91495 -4.245718,32.63053 -8.068211,44.92332 -3.822496,12.29279 -12.040717,17.76385 -16.419112,27.69422 -4.378397,9.93038 -4.292283,17.66615 -5.355847,25.99739 l 0.0148,5.54347 0.880092,-1.41726 1.397713,-4.20289 c 1.063564,-8.33124 1.266168,-15.28367 5.485086,-24.85235 4.21892,-9.56868 12.545496,-15.18734 16.522627,-27.97743 3.977133,-12.79009 7.923416,-31.74274 8.189306,-45.65769 l 0.02539,-1.32226 z m -74.14523,31.69441 -0.27539,1.29297 c -1.68398,7.88809 -4.09514,12.88017 -7.23161,20.63422 -3.13647,7.75405 -7.83868,15.65036 -11.21485,24.11328 -3.37617,8.46293 -5.33529,17.30764 -7.28515,26.08203 l -0.28711,1.29102 2.58203,0.57422 0.28711,-1.29102 c 1.94986,-8.77439 3.89087,-17.47589 7.16211,-25.67578 3.27123,-8.19989 7.96394,-16.0791 11.20898,-24.10156 3.24504,-8.02246 5.68045,-13.18559 7.36442,-21.07368 l 0.27735,-1.29297 z m 127.32315,15.95671 c -3.376169,8.46293 -5.812753,17.27125 -8.02458,26.08203 -0.746898,2.97526 -1.765957,9.02151 -1.765957,9.02151 0,0 3.421785,-6.18251 4.396718,-10.5697 0.974933,-4.3872 2.768975,-15.48088 6.373956,-23.55337 11.021402,-24.6798 2.396031,-9.4434 -0.980137,-0.98047 z m -13.679336,7.73051 c -3.376169,8.46293 -3.799388,17.7192 -7.285156,26.08203 -1.221051,2.92946 -4.723652,8.31874 -4.723652,8.31874 0,0 7.118903,-5.47974 8.093836,-9.86693 0.974933,-4.3872 2.768975,-15.48088 6.373956,-23.55337 11.021403,-24.6798 0.917184,-9.4434 -2.458984,-0.98047 z m 95.015939,-67.46621 c -3.376169,8.46293 -3.799388,17.7192 -7.285156,26.08203 -1.221051,2.92946 -9.611917,21.83463 -9.611917,21.83463 3.417624,-3.03572 12.800196,-19.03152 12.982101,-23.38282 0.187305,-4.48045 2.768975,-15.48088 6.373956,-23.55337 11.021403,-24.6798 0.917184,-9.4434 -2.458984,-0.98047 z"
       id="path135-6-9"
       transform="matrix(0.71564747,0,0,0.75296963,122.44157,-110.02949)"
       clip-path="url(#clipPath66)" />
  </g>
  <g
     id="layer3"
     style="display:inline"
     transform="translate(0.45801889)">
    <path
       style="display:none;fill:#db72fa;fill-opacity:1;stroke:none;stroke-width:1;stroke-linecap:square;stroke-miterlimit:2;stroke-dasharray:none;stroke-dashoffset:0;stroke-opacity:1;paint-order:markers stroke fill"
       d="M 65.147778,54.040745 C 53.934254,46.680598 38.737732,32.609476 27.167903,28.578003 24.974416,36.034862 22.780929,42.965394 20.587442,49.447463 12.136974,44.967151 7.1195483,41.592916 0,39.999999 V 99.999997 H 180 V 13 c -4.56286,-0.153447 -12.74293,1.346597 -15.35656,2.256364 -8.42368,31.479503 -12.75225,42.961077 -22.51827,65.777311 -13.00802,-9.888402 -17.09019,-23.39987 -32.82658,-32.761294 l -5.94593,16.14563 C 91.075308,56.43205 82.270865,42.460958 70.541027,37.436452 c -1.79775,6.311977 -3.595499,11.707519 -5.393249,16.604293 z"
       id="path13" />
    <path
       style="display:inline;fill:none;fill-opacity:1;stroke:#9a35c4;stroke-width:1;stroke-linecap:butt;stroke-linejoin:round;stroke-miterlimit:2;stroke-dasharray:none;stroke-dashoffset:0;stroke-opacity:1;paint-order:markers stroke fill"
       d="m 180,13 c -4.56286,-0.153447 -12.74293,1.346597 -15.35656,2.256364 -7.09255,26.874315 -12.20648,41.085632 -22.51828,65.777311 -13.00802,-9.888402 -17.09019,-23.39987 -32.82658,-32.761294 l -5.94592,16.14563 C 91.075307,56.43205 82.270864,42.460958 70.541026,37.436452 68.743276,43.748429 66.945527,49.143971 65.147777,54.040745 53.934253,46.680598 38.737732,32.609476 27.167903,28.578003 24.974416,36.034862 22.780929,42.965394 20.587442,49.447463 12.136974,44.967151 7.1195483,41.592916 0,39.999999"
       id="path15" />
    <path
       style="display:none;fill:none;fill-opacity:1;stroke:#9a35c4;stroke-width:1;stroke-linecap:butt;stroke-miterlimit:2;stroke-dasharray:none;stroke-dashoffset:0;stroke-opacity:1;paint-order:markers stroke fill"
       d="m 180,13 c -4.56286,-0.153447 -12.74294,1.346597 -15.35657,2.256364 M 142.12516,81.033675 C 129.11714,71.145273 125.03497,57.633805 109.29858,48.272381 m -5.94592,16.14563 C 91.075307,56.43205 82.270864,42.460958 70.541026,37.436452 M 65.147777,54.040745 C 53.934253,46.680598 38.737732,32.609476 27.167903,28.578003 m -6.580461,20.86946 C 12.136974,44.967151 7.1195483,41.592916 0,39.999999"
       id="path16" />
  </g>
  <g
     id="layer1"
     style="display:inline"
     transform="translate(0.45801889)">
    <path
       style="display:inline;fill:none;fill-opacity:1;stroke:#180d16;stroke-width:1;stroke-linecap:butt;stroke-miterlimit:2;stroke-dasharray:3, 3;stroke-dashoffset:0;stroke-opacity:1;paint-order:markers stroke fill"
       d="m 0,99.999997 c 0,0 13.958684,-31.732648 19.696465,-48.070985 C 25.675837,34.902743 34.999999,0 34.999999,0 m 11.037417,99.999998 c 0,0 13.958685,-31.732649 19.696466,-48.070986 C 71.713254,34.902743 81.037416,-3.314041e-7 81.037416,-3.314041e-7 M 88.320749,100 c 0,0 13.958751,-31.732646 19.696551,-48.070989 C 113.99668,34.902746 123.32084,-2.3314041e-6 123.32084,-2.3314041e-6 M 133.82917,100 c 0,0 13.98112,-31.546652 19.69646,-47.806406 C 159.53787,35.089189 168.82917,0 168.82917,0"
       id="path12" />
    <path
       style="display:none;fill:none;fill-opacity:1;stroke:#180d16;stroke-width:1;stroke-linecap:butt;stroke-miterlimit:2;stroke-dasharray:3, 3;stroke-dashoffset:0;stroke-opacity:1;paint-order:markers stroke fill"
       d="m 0,99.999997 c 0,0 13.958684,-31.732648 19.696465,-48.070985 2.199564,-6.26326 4.851744,-14.945564 7.325898,-23.419635 m 19.015053,71.490621 c 0,0 13.958685,-31.732649 19.696466,-48.070986 2.124142,-6.048498 4.670394,-14.35299 7.070786,-22.547299 M 88.320749,100 c 0,0 13.958761,-31.732643 19.696551,-48.070989 1.11593,-3.17761 2.34836,-6.97787 3.61494,-11.057692 M 133.82917,100 c 0,0 13.98112,-31.546653 19.69646,-47.806406 3.45374,-9.825653 7.98955,-25.586189 11.22453,-37.220588"
       id="path78" />
  </g>
</svg>
